SplineFontDB: 3.0
FontName: SixCaps
FullName: Six Caps
FamilyName: Six Caps
Weight: Book
Copyright: Copyright (c) 2010 by vernon adams. All rights reserved.
Version: 001.000
ItalicAngle: 0
UnderlinePosition: -232
UnderlineWidth: 41
Ascent: 1638
Descent: 410
LayerCount: 2
Layer: 0 1 "Back"  1
Layer: 1 1 "Fore"  0
NeedsXUIDChange: 1
XUID: [1021 423 1553708084 2169475]
FSType: 0
OS2Version: 0
OS2_WeightWidthSlopeOnly: 0
OS2_UseTypoMetrics: 1
CreationTime: 1290423263
ModificationTime: 1296613492
PfmFamily: 17
TTFWeight: 400
TTFWidth: 5
LineGap: 0
VLineGap: 0
Panose: 2 0 5 8 2 0 0 2 0 4
OS2TypoAscent: 2600
OS2TypoAOffset: 0
OS2TypoDescent: -490
OS2TypoDOffset: 0
OS2TypoLinegap: 0
OS2WinAscent: 2600
OS2WinAOffset: 0
OS2WinDescent: 490
OS2WinDOffset: 0
HheadAscent: 2600
HheadAOffset: 0
HheadDescent: -490
HheadDOffset: 0
OS2SubXSize: 1434
OS2SubYSize: 1331
OS2SubXOff: 0
OS2SubYOff: 287
OS2SupXSize: 1434
OS2SupYSize: 1331
OS2SupXOff: 0
OS2SupYOff: 977
OS2StrikeYSize: 102
OS2StrikeYPos: 512
OS2Vendor: 'FFOR'
OS2CodePages: 20000001.00000000
OS2UnicodeRanges: a00002af.40002048.00000000.00000000
Lookup: 258 0 0 "'kern' Horizontal Kerning in Latin lookup 0"  {"'kern' Horizontal Kerning in Latin lookup 0 subtable"  } ['kern' ('latn' <'dflt' > ) ]
MarkAttachClasses: 1
DEI: 91125
TtTable: prep
PUSHW_1
 511
SCANCTRL
PUSHB_1
 1
SCANTYPE
SVTCA[y-axis]
MPPEM
PUSHB_1
 8
LT
IF
PUSHB_2
 1
 1
INSTCTRL
EIF
PUSHB_2
 70
 6
CALL
IF
POP
PUSHB_1
 16
EIF
MPPEM
PUSHB_1
 20
GT
IF
POP
PUSHB_1
 128
EIF
SCVTCI
PUSHB_1
 6
CALL
NOT
IF
SVTCA[y-axis]
PUSHB_1
 5
DUP
RCVT
PUSHB_1
 3
CALL
WCVTP
PUSHB_1
 6
DUP
RCVT
PUSHB_3
 5
 35
 2
CALL
PUSHB_1
 3
CALL
WCVTP
PUSHB_1
 7
DUP
RCVT
PUSHB_3
 6
 34
 2
CALL
PUSHB_1
 3
CALL
WCVTP
PUSHB_1
 8
DUP
RCVT
PUSHB_3
 7
 30
 2
CALL
PUSHB_1
 3
CALL
WCVTP
SVTCA[x-axis]
PUSHB_1
 9
DUP
RCVT
PUSHB_1
 3
CALL
WCVTP
PUSHB_1
 10
DUP
RCVT
PUSHB_3
 9
 217
 2
CALL
PUSHB_2
 3
 70
SROUND
CALL
WCVTP
PUSHB_1
 11
DUP
RCVT
PUSHW_3
 9
 32767
 2
CALL
PUSHB_2
 3
 70
SROUND
CALL
WCVTP
EIF
PUSHB_1

StartChar: B
Encoding: 66 66 4
Width: 543
Flags: W
HStem: 0 132<220 302.518> 988 138<220 311.953> 1912 136<220 309.301>
VStem: 64 156<132 988 1126 1912> 330 157<136.256 975.105 1146.11 1903.81>
LayerCount: 2
Fore
SplineSet
487 175 m 2,0,1
 487 103 487 103 425 52 c 0,2,3
 362 0 362 0 276 0 c 2,4,-1
 64 0 l 1,5,-1
 64 2048 l 1,6,-1
 276 2048 l 2,7,8
 370 2048 370 2048 430 1998 c 0,9,10
 486 1950 486 1950 487 1876 c 2,11,-1
 487 1208 l 2,12,13
 487 1163 487 1163 460.5 1118.5 c 128,-1,14
 434 1074 434 1074 378 1057 c 1,15,16
 458 1034 458 1034 480 956 c 0,17,18
 486 933 486 933 487 911 c 2,19,-1
 487 175 l 2,0,1
220 1126 m 1,20,-1
 287 1126 l 2,21,22
 316 1126 316 1126 323 1145.5 c 128,-1,23
 330 1165 330 1165 330 1194 c 2,24,-1
 330 1866 l 2,25,26
 330 1898 330 1898 310 1904 c 0,27,28
 288 1912 288 1912 220 1912 c 1,29,-1
 220 1126 l 1,20,-1
330 931 m 2,30,31
 330 963 330 963 312.5 975.5 c 128,-1,32
 295 988 295 988 279 988 c 2,33,-1
 220 988 l 1,34,-1
 220 132 l 1,35,36
 288 132 288 132 303 136 c 0,37,38
 330 144 330 144 330 175 c 2,39,-1
 330 931 l 2,30,31
EndSplineSet
EndChar

StartChar: C
Encoding: 67 67 5
Width: 543
Flags: W
HStem: -24 126<216.758 328.707> 1938 137<224.458 320.007>
VStem: 60 156<104.473 1924.59> 329 157<103.762 1002 1148 1924.59>
LayerCount: 2
Fore
SplineSet
486 1148 m 1,0,-1
 329 1148 l 1,1,-1
 329 1893 l 2,2,3
 329 1912 329 1912 313 1925 c 128,-1,4
 297 1938 297 1938 272.5 1938 c 128,-1,5
 248 1938 248 1938 232 1925 c 128,-1,6
 216 1912 216 1912 216 1893 c 2,7,-1
 216 148 l 2,8,9
 216 129 216 129 232.5 115.5 c 128,-1,10
 249 102 249 102 272 102 c 128,-1,11
 295 102 295 102 312 115.5 c 128,-1,12
 329 129 329 129 329 148 c 2,13,-1
 329 1002 l 1,14,-1
 486 1002 l 1,15,-1
 486 148 l 2,16,17
 486 73 486 73 427 25 c 0,18,19
 367 -24 367 -24 273 -24 c 0,20,21
 184 -24 184 -24 122 26 c 128,-1,22
 60 76 60 76 60 151 c 2,23,-1
 60 1900 l 2,24,25
 60 1974 60 1974 120 2024 c 0,26,27
 181 2074 181 2074 274 2075 c 0,28,29
 364 2075 364 2075 426 2025 c 0,30,31
 486 1977 486 1977 486 1905 c 2,32,-1
 486 1148 l 1,0,-1
EndSplineSet
EndChar

StartChar: D
Encoding: 68 68 6
Width: 550
Flags: W
HStem: 0 132<220 302.457> 1912 136<220 332.738>
VStem: 64 156<132 1912> 333 157<136.256 1909.88>
LayerCount: 2
Fore
SplineSet
333 1866 m 2,0,1
 333 1910 333 1910 271 1912 c 0,2,3
 250 1912 250 1912 220 1912 c 1,4,-1
 220 132 l 1,5,6
 286 132 286 132 303 136 c 0,7,8
 333 144 333 144 333 175 c 2,9,-1
 333 1866 l 2,0,1
490 175 m 2,10,11
 490 104 490 104 429 52 c 128,-1,12
 368 0 368 0 281 0 c 2,13,-1
 64 0 l 1,14,-1
 64 2048 l 1,15,-1
 281 2048 l 2,16,17
 368 2048 368 2048 428 1998 c 0,18,19
 490 1946 490 1946 490 1876 c 2,20,-1
 490 175 l 2,10,11
EndSplineSet
EndChar

StartChar: E
Encoding: 69 69 7
Width: 438
Flags: W
HStem: 0 130<220 428> 1019 139<220 375> 1912 136<220 428>
VStem: 64 364<0 130 1912 2048> 64 156<130 1019 1158 1912>
LayerCount: 2
Fore
SplineSet
428 1912 m 1,0,-1
 220 1912 l 1,1,-1
 220 1158 l 1,2,-1
 375 1158 l 1,3,-1
 375 1019 l 1,4,-1
 220 1019 l 1,5,-1
 220 130 l 1,6,-1
 428 130 l 1,7,-1
 428 0 l 1,8,-1
 64 0 l 1,9,-1
 64 2048 l 1,10,-1
 428 2048 l 1,11,-1
 428 1912 l 1,0,-1
EndSplineSet
EndChar

StartChar: F
Encoding: 70 70 8
Width: 434
Flags: W
HStem: 0 21G<64 220> 1019 139<220 370> 1912 136<220 421>
VStem: 64 156<0 1019 1158 1912>
LayerCount: 2
Fore
SplineSet
421 1912 m 1,0,-1
 220 1912 l 1,1,-1
 220 1158 l 1,2,-1
 370 1158 l 1,3,-1
 370 1019 l 1,4,-1
 220 1019 l 1,5,-1
 220 0 l 1,6,-1
 64 0 l 1,7,-1
 64 2048 l 1,8,-1
 421 2048 l 1,9,-1
 421 1912 l 1,0,-1
EndSplineSet
EndChar

StartChar: G
Encoding: 71 71 9
Width: 549
Flags: W
HStem: -24 126<221.068 321.294> 897 135<258 330> 1939 136<221.061 321.514>
VStem: 64 156<104 1936.71> 258 229<897 1032> 330 157<116.438 897 1166 1926.11>
LayerCount: 2
Fore
SplineSet
487 1166 m 1,0,-1
 330 1166 l 1,1,-1
 330 1898 l 2,2,3
 330 1914 330 1914 315 1926.5 c 128,-1,4
 300 1939 300 1939 276 1939 c 128,-1,5
 252 1939 252 1939 236 1926.5 c 128,-1,6
 220 1914 220 1914 220 1898 c 2,7,-1
 220 148 l 2,8,9
 220 130 220 130 236 116 c 128,-1,10
 252 102 252 102 276 102 c 128,-1,11
 300 102 300 102 315 116 c 128,-1,12
 330 130 330 130 330 148 c 2,13,-1
 330 897 l 1,14,-1
 258 897 l 1,15,-1
 258 1032 l 1,16,-1
 487 1032 l 1,17,-1
 487 144 l 2,18,19
 487 76 487 76 424 26 c 128,-1,20
 361 -24 361 -24 273 -24 c 1,21,22
 188 -24 188 -24 126 26 c 0,23,24
 64 78 64 78 64 148 c 2,25,-1
 64 1905 l 2,26,27
 64 1975 64 1975 126 2025 c 128,-1,28
 188 2075 188 2075 273 2075 c 0,29,30
 362 2075 362 2075 424 2026 c 0,31,32
 487 1976 487 1976 487 1905 c 2,33,-1
 487 1166 l 1,0,-1
EndSplineSet
EndChar

StartChar: H
Encoding: 72 72 10
Width: 552
Flags: W
HStem: 0 21G<64 220 330 487> 974 122<220 330> 2028 20G<64 220 330 487>
VStem: 64 156<0 974 1096 2048> 330 157<0 974 1096 2048>
LayerCount: 2
Fore
SplineSet
220 1096 m 1,0,-1
 330 1096 l 1,1,-1
 330 2048 l 1,2,-1
 487 2048 l 1,3,-1
 487 0 l 1,4,-1
 330 0 l 1,5,-1
 330 974 l 1,6,-1
 220 974 l 1,7,-1
 220 0 l 1,8,-1
 64 0 l 1,9,-1
 64 2048 l 1,10,-1
 220 2048 l 1,11,-1
 220 1096 l 1,0,-1
EndSplineSet
EndChar

StartChar: I
Encoding: 73 73 11
Width: 287
Flags: W
HStem: 0 21G<67 223> 2028 20G<67 223>
VStem: 67 156<0 2048>
LayerCount: 2
Fore
SplineSet
223 2048 m 1,0,-1
 223 0 l 1,1,-1
 67 0 l 1,2,-1
 67 2048 l 1,3,-1
 223 2048 l 1,0,-1
EndSplineSet
EndChar

StartChar: J
Encoding: 74 74 12
Width: 538
Flags: W
HStem: -24 126<206.705 307.661> 2028 20G<316 473>
VStem: 50 156<103.613 952> 316 157<115.923 2048>
LayerCount: 2
Fore
SplineSet
206 148 m 2,0,1
 206 102 206 102 265 102 c 0,2,3
 287 102 287 102 301.5 115.5 c 128,-1,4
 316 129 316 129 316 148 c 2,5,-1
 316 2048 l 1,6,-1
 473 2048 l 1,7,-1
 473 151 l 2,8,9
 473 78 473 78 412 26 c 0,10,11
 352 -24 352 -24 265 -24 c 1,12,13
 177 -24 177 -24 113.5 26.5 c 128,-1,14
 50 77 50 77 50 148 c 2,15,-1
 50 952 l 1,16,-1
 206 952 l 1,17,-1
 206 148 l 2,0,1
EndSplineSet
EndChar

StartChar: K
Encoding: 75 75 13
Width: 536
Flags: W
HStem: 0 21G<64 220 344.505 507> 2028 20G<64 220 330.729 494>
VStem: 64 156<0 1018 1053 2048>
LayerCount: 2
Fore
SplineSet
507 0 m 1,0,-1
 347 0 l 1,1,-1
 220 1018 l 1,2,-1
 220 0 l 1,3,-1
 64 0 l 1,4,-1
 64 2048 l 1,5,-1
 220 2048 l 1,6,-1
 220 1053 l 1,7,-1
 333 2048 l 1,8,-1
 494 2048 l 1,9,-1
 374 1042 l 1,10,-1
 507 0 l 1,0,-1
EndSplineSet
EndChar

StartChar: L
Encoding: 76 76 14
Width: 396
Flags: W
HStem: 0 129<220 388> 2028 20G<64 220>
VStem: 64 156<129 2048>
LayerCount: 2
Fore
SplineSet
220 2048 m 1,0,-1
 220 129 l 1,1,-1
 388 129 l 1,2,-1
 388 0 l 1,3,-1
 64 0 l 1,4,-1
 64 2048 l 1,5,-1
 220 2048 l 1,0,-1
EndSplineSet
EndChar

StartChar: M
Encoding: 77 77 15
Width: 703
Flags: W
HStem: 0 21G<64 220 479 638> 2028 20G<64 222.935 475.125 638>
VStem: 64 156<0 1079 1941.96 2048> 315 71<123 261.437> 479 159<0 1079 1939.47 2048>
LayerCount: 2
Fore
SplineSet
477 2048 m 1,0,-1
 638 2048 l 1,1,-1
 638 0 l 1,2,-1
 479 0 l 1,3,-1
 483 1079 l 1,4,-1
 386 123 l 1,5,-1
 315 123 l 1,6,-1
 216 1079 l 1,7,-1
 220 0 l 1,8,-1
 64 0 l 1,9,-1
 64 2048 l 1,10,-1
 221 2048 l 1,11,-1
 351 704 l 1,12,-1
 477 2048 l 1,0,-1
EndSplineSet
EndChar

StartChar: N
Encoding: 78 78 16
Width: 557
Flags: W
HStem: 0 21G<64 220 333.968 493> 2028 20G<64 220.151 346 493>
VStem: 64 156<0 1142 1931.49 2048> 346 147<0 129.934 858 2048>
LayerCount: 2
Fore
SplineSet
493 0 m 1,0,-1
 336 0 l 1,1,-1
 220 1142 l 1,2,-1
 220 0 l 1,3,-1
 64 0 l 1,4,-1
 64 2048 l 1,5,-1
 218 2048 l 1,6,-1
 346 858 l 1,7,-1
 346 2048 l 1,8,-1
 493 2048 l 1,9,-1
 493 0 l 1,0,-1
EndSplineSet
EndChar

StartChar: O
Encoding: 79 79 17
Width: 543
Flags: W
HStem: -24 126<224.538 324.742> 1952 123<224.323 324.496>
VStem: 60 156<116.438 1937.56> 325 158<103.294 1950.89>
LayerCount: 2
Fore
SplineSet
60 1903 m 2,0,1
 60 1972 60 1972 122 2024 c 0,2,3
 183 2074 183 2074 269 2075 c 0,4,5
 357 2075 357 2075 420 2023 c 128,-1,6
 483 1971 483 1971 483 1901 c 2,7,-1
 483 151 l 2,8,9
 483 78 483 78 420 26 c 0,10,11
 358 -24 358 -24 269 -24 c 1,12,13
 184 -24 184 -24 122 26 c 128,-1,14
 60 76 60 76 60 144 c 2,15,-1
 60 1903 l 2,0,1
216 148 m 2,16,17
 216 130 216 130 230.5 116 c 128,-1,18
 245 102 245 102 269 102 c 256,19,20
 293 102 293 102 309 116 c 128,-1,21
 325 130 325 130 325 148 c 2,22,-1
 325 1905 l 2,23,24
 325 1924 325 1924 308 1938 c 128,-1,25
 291 1952 291 1952 268 1952 c 128,-1,26
 245 1952 245 1952 230.5 1938 c 128,-1,27
 216 1924 216 1924 216 1905 c 2,28,-1
 216 148 l 2,16,17
EndSplineSet
EndChar

StartChar: P
Encoding: 80 80 18
Width: 510
Flags: W
HStem: 0 21G<64 220> 952 134<220 296.758> 1925 123<220 292.121>
VStem: 64 156<0 952 1086 1925> 321 159<1094.77 1914.68>
LayerCount: 2
Fore
SplineSet
480 1128 m 2,0,1
 480 1030 480 1030 413.5 991 c 128,-1,2
 347 952 347 952 220 952 c 1,3,-1
 220 0 l 1,4,-1
 64 0 l 1,5,-1
 64 2048 l 1,6,-1
 267 2048 l 2,7,8
 357 2048 357 2048 417 1998 c 0,9,10
 480 1946 480 1946 480 1861 c 2,11,-1
 480 1128 l 2,0,1
321 1875 m 2,12,13
 321 1905 321 1905 293 1915 c 128,-1,14
 265 1925 265 1925 220 1925 c 1,15,-1
 220 1086 l 1,16,17
 274 1086 274 1086 297.5 1094.5 c 128,-1,18
 321 1103 321 1103 321 1137 c 2,19,-1
 321 1875 l 2,12,13
EndSplineSet
EndChar

StartChar: Q
Encoding: 81 81 19
Width: 560
Flags: W
HStem: 1952 123<224.323 324.496>
VStem: 60 156<116.438 1937.56> 325 158<102.875 1950.89>
LayerCount: 2
Fore
SplineSet
463 -193 m 1,0,-1
 182 -11 l 1,1,2
 152 -10 152 -10 122 18 c 0,3,4
 60 75 60 75 60 144 c 2,5,-1
 60 1903 l 2,6,7
 60 1972 60 1972 122 2024 c 0,8,9
 183 2074 183 2074 269 2075 c 0,10,11
 357 2075 357 2075 420 2023 c 128,-1,12
 483 1971 483 1971 483 1901 c 2,13,-1
 483 164 l 2,14,15
 483 110 483 110 451.5 68.5 c 128,-1,16
 420 27 420 27 360 13 c 1,17,-1
 525 -90 l 1,18,-1
 463 -193 l 1,0,-1
216 148 m 2,19,20
 216 130 216 130 230.5 116 c 128,-1,21
 245 102 245 102 269 102 c 256,22,23
 293 102 293 102 309 116 c 128,-1,24
 325 130 325 130 325 148 c 2,25,-1
 325 1905 l 2,26,27
 325 1924 325 1924 308 1938 c 128,-1,28
 291 1952 291 1952 268 1952 c 128,-1,29
 245 1952 245 1952 230.5 1938 c 128,-1,30
 216 1924 216 1924 216 1905 c 2,31,-1
 216 148 l 2,19,20
EndSplineSet
EndChar

StartChar: R
Encoding: 82 82 20
Width: 531
Flags: W
HStem: 0 21G<64 220 318 475> 998 91<220 292.728> 1912 136<220 292.728>
VStem: 64 156<0 998 1089 1912> 318 157<0 984.774 1094.68 1905.81>
LayerCount: 2
Fore
SplineSet
475 1173 m 2,0,1
 475 1082 475 1082 386 1043 c 1,2,3
 475 1016 475 1016 475 921 c 2,4,-1
 475 0 l 1,5,-1
 318 0 l 1,6,-1
 318 941 l 2,7,8
 318 978 318 978 308 985 c 0,9,10
 291 998 291 998 220 998 c 1,11,-1
 220 0 l 1,12,-1
 64 0 l 1,13,-1
 64 2048 l 1,14,-1
 273 2048 l 2,15,16
 353 2048 353 2048 414 1996 c 128,-1,17
 475 1944 475 1944 475 1870 c 2,18,-1
 475 1173 l 2,0,1
318 1870 m 2,19,20
 318 1900 318 1900 293.5 1906 c 128,-1,21
 269 1912 269 1912 220 1912 c 1,22,-1
 220 1089 l 1,23,24
 269 1089 269 1089 293.5 1094.5 c 128,-1,25
 318 1100 318 1100 318 1128 c 2,26,-1
 318 1870 l 2,19,20
EndSplineSet
EndChar

StartChar: S
Encoding: 83 83 21
Width: 519
Flags: W
HStem: -24 126<218.169 301.32> 1936 136<210.634 301.804>
VStem: 53 157<115.924 857 1284.29 1933.73> 309 159<115.924 869.739 1288 1922.59>
LayerCount: 2
Fore
SplineSet
309 489 m 2,0,1
 309 800 309 800 228 970 c 0,2,3
 205 1018 205 1018 181 1062 c 2,4,5
 134 1150 l 1,6,7
 53 1303 53 1303 53 1547 c 2,8,-1
 53 1889 l 2,9,10
 54 1964 54 1964 112 2017 c 0,11,12
 172 2072 172 2072 262 2072 c 256,13,14
 353 2072 353 2072 411 2018 c 0,15,16
 468 1965 468 1965 468 1893 c 2,17,-1
 468 1288 l 1,18,-1
 309 1288 l 1,19,-1
 309 1891 l 2,20,21
 309 1910 309 1910 296 1923 c 128,-1,22
 283 1936 283 1936 262 1936 c 128,-1,23
 241 1936 241 1936 225.5 1922 c 128,-1,24
 210 1908 210 1908 210 1889 c 2,25,-1
 210 1600 l 2,26,27
 210 1352 210 1352 292 1194 c 1,28,-1
 386 1020 l 2,29,30
 468 869 468 869 468 640 c 2,31,-1
 468 227 l 2,32,33
 468 100 468 100 428 44 c 0,34,35
 380 -24 380 -24 262 -24 c 1,36,37
 172 -24 172 -24 114 30 c 0,38,39
 53 87 53 87 53 174 c 2,40,-1
 53 857 l 1,41,-1
 210 857 l 1,42,-1
 210 151 l 2,43,44
 210 129 210 129 224.5 115.5 c 128,-1,45
 239 102 239 102 261 102 c 128,-1,46
 283 102 283 102 296 115.5 c 128,-1,47
 309 129 309 129 309 151 c 2,48,-1
 309 489 l 2,0,1
EndSplineSet
EndChar

StartChar: T
Encoding: 84 84 22
Width: 423
Flags: W
HStem: 0 21G<132 288> 1912 136<-1 132 288 423>
VStem: 132 156<0 1912>
LayerCount: 2
Fore
SplineSet
423 2048 m 1,0,-1
 423 1912 l 1,1,-1
 288 1912 l 1,2,-1
 288 0 l 1,3,-1
 132 0 l 1,4,-1
 132 1912 l 1,5,-1
 -1 1912 l 1,6,-1
 -1 2048 l 1,7,-1
 423 2048 l 1,0,-1
EndSplineSet
EndChar

StartChar: U
Encoding: 85 85 23
Width: 522
Flags: W
HStem: -24 126<213.203 297.794> 2028 20G<57 213 305 462>
VStem: 57 156<102.475 2048> 305 157<113.86 2048>
LayerCount: 2
Fore
SplineSet
305 2048 m 1,0,-1
 462 2048 l 1,1,-1
 462 147 l 2,2,3
 462 75 462 75 402 25 c 0,4,5
 343 -24 343 -24 262 -24 c 0,6,7
 176 -24 176 -24 118 26 c 0,8,9
 57 78 57 78 57 154 c 2,10,-1
 57 2048 l 1,11,-1
 213 2048 l 1,12,-1
 213 141 l 2,13,14
 213 125 213 125 228.5 113.5 c 128,-1,15
 244 102 244 102 262 102 c 256,16,17
 280 102 280 102 292.5 113.5 c 128,-1,18
 305 125 305 125 305 141 c 2,19,-1
 305 2048 l 1,0,-1
EndSplineSet
EndChar

StartChar: V
Encoding: 86 86 24
Width: 507
Flags: W
HStem: 0 21G<128.906 357.201> 2028 20G<18 181.795 311.193 479>
VStem: 18 163<1785.86 2048> 130 226<0 238.7> 312 167<1809.3 2048>
LayerCount: 2
Fore
SplineSet
312 2048 m 1,0,-1
 479 2048 l 1,1,-1
 356 0 l 1,2,-1
 130 0 l 1,3,-1
 18 2048 l 1,4,-1
 181 2048 l 1,5,-1
 246 412 l 1,6,-1
 312 2048 l 1,0,-1
EndSplineSet
EndChar

StartChar: W
Encoding: 87 87 25
Width: 836
Flags: W
HStem: 0 21G<118.141 333.065 479.095 691.064> 2028 20G<31 209.443 318.089 498.924 621.397 799>
VStem: 31 178<1714.36 2048> 319 179<1737.58 2048> 622 177<1778.64 2048>
LayerCount: 2
Fore
SplineSet
573 424 m 1,0,-1
 622 2048 l 1,1,-1
 799 2048 l 1,2,-1
 690 0 l 1,3,-1
 480 0 l 1,4,-1
 412 1502 l 1,5,-1
 332 0 l 1,6,-1
 119 0 l 1,7,-1
 31 2048 l 1,8,-1
 209 2048 l 1,9,-1
 245 424 l 1,10,-1
 319 2048 l 1,11,-1
 498 2048 l 1,12,-1
 573 424 l 1,0,-1
EndSplineSet
EndChar

StartChar: X
Encoding: 88 88 26
Width: 472
Flags: W
HStem: 0 21G<11 180.296 294.665 458> 2028 20G<14 179.944 295.023 458>
VStem: 11 447
LayerCount: 2
Fore
SplineSet
458 0 m 1,0,-1
 297 0 l 1,1,-1
 237 514 l 1,2,-1
 178 0 l 1,3,-1
 11 0 l 1,4,-1
 146 1011 l 1,5,-1
 14 2048 l 1,6,-1
 178 2048 l 1,7,-1
 237 1441 l 1,8,-1
 297 2048 l 1,9,-1
 458 2048 l 1,10,-1
 329 1011 l 1,11,-1
 458 0 l 1,0,-1
EndSplineSet
EndChar

StartChar: Y
Encoding: 89 89 27
Width: 480
Flags: W
HStem: 0 21G<161 318> 2028 20G<11 175.79 307.014 468>
VStem: 11 163<1927.96 2048> 161 157<0 912.04> 309 159<1927.96 2048>
LayerCount: 2
Fore
SplineSet
318 792 m 1,0,-1
 318 0 l 1,1,-1
 161 0 l 1,2,-1
 161 792 l 1,3,-1
 11 2048 l 1,4,-1
 174 2048 l 1,5,-1
 238 1333 l 1,6,-1
 309 2048 l 1,7,-1
 468 2048 l 1,8,-1
 318 792 l 1,0,-1
EndSplineSet
EndChar

StartChar: Z
Encoding: 90 90 28
Width: 382
Flags: W
HStem: 0 130<192 364> 1912 136<21 196>
VStem: 18 346<0 130 1912 2048>
LayerCount: 2
Fore
SplineSet
360 2048 m 1,0,-1
 192 130 l 1,1,-1
 364 130 l 1,2,-1
 364 0 l 1,3,-1
 18 0 l 1,4,-1
 196 1912 l 1,5,-1
 21 1912 l 1,6,-1
 21 2048 l 1,7,-1
 360 2048 l 1,0,-1
EndSplineSet
EndChar

StartChar: a
Encoding: 97 97 29
Width: 479
Flags: W
HStem: 0 21G<13 165.347 319.601 466> 386 121<203 279> 1748 20G<144.495 355.267> 1748 20G<144.495 355.267>
LayerCount: 2
Fore
SplineSet
466 0 m 1,0,-1
 321 0 l 1,1,-1
 294 386 l 1,2,-1
 190 386 l 1,3,-1
 164 0 l 1,4,-1
 13 0 l 1,5,-1
 146 1768 l 1,6,-1
 354 1768 l 1,7,-1
 466 0 l 1,0,-1
279 507 m 1,8,-1
 249 1407 l 1,9,-1
 203 507 l 1,10,-1
 279 507 l 1,8,-1
EndSplineSet
EndChar

StartChar: b
Encoding: 98 98 30
Width: 505
Flags: W
HStem: 0 119<207 276.583> 857 122<207 298.386> 1662 106<207 276.791>
VStem: 64 143<119 857 979 1662> 302 154<124.286 855.4 993.439 1656.84>
LayerCount: 2
Fore
SplineSet
351 916 m 1,0,1
 456 881 456 881 456 792 c 2,2,-1
 456 154 l 2,3,4
 456 47 456 47 352 18 c 0,5,6
 287 0 287 0 64 0 c 1,7,-1
 64 1768 l 1,8,9
 287 1768 287 1768 345 1752.5 c 128,-1,10
 403 1737 403 1737 429.5 1707.5 c 128,-1,11
 456 1678 456 1678 456 1623 c 2,12,-1
 456 1044 l 2,13,14
 456 949 456 949 351 916 c 1,0,1
207 979 m 1,15,-1
 272 979 l 2,16,17
 295 979 295 979 298.5 993 c 128,-1,18
 302 1007 302 1007 302 1029 c 2,19,-1
 302 1623 l 1,20,21
 300 1652 300 1652 277.5 1657 c 128,-1,22
 255 1662 255 1662 207 1662 c 1,23,-1
 207 979 l 1,15,-1
302 811 m 2,24,25
 302 857 302 857 273 857 c 2,26,-1
 207 857 l 1,27,-1
 207 119 l 1,28,29
 264 120 264 120 277 124 c 0,30,31
 302 133 302 133 302 160 c 2,32,-1
 302 811 l 2,24,25
EndSplineSet
EndChar

StartChar: c
Encoding: 99 99 31
Width: 498
Flags: W
HStem: -26 121<221.612 299.832> 1681 115<216.991 299.719>
VStem: 60 156<105.828 1680.14> 300 151<96.6875 829 1032 1680.73>
LayerCount: 2
Fore
SplineSet
451 1032 m 1,0,-1
 300 1032 l 1,1,-1
 300 1649 l 2,2,3
 300 1663 300 1663 287 1672 c 128,-1,4
 274 1681 274 1681 259 1681 c 0,5,6
 216 1681 216 1681 216 1649 c 2,7,-1
 216 127 l 2,8,9
 216 116 216 116 226.5 105.5 c 128,-1,10
 237 95 237 95 255.5 95 c 128,-1,11
 274 95 274 95 287 105.5 c 128,-1,12
 300 116 300 116 300 127 c 2,13,-1
 300 829 l 1,14,-1
 451 829 l 1,15,-1
 451 127 l 2,16,17
 451 64 451 64 392 20 c 0,18,19
 331 -26 331 -26 261 -26 c 0,20,21
 223 -26 223 -26 183 -12 c 0,22,23
 108 12 108 12 76 68 c 0,24,25
 60 96 60 96 60 127 c 2,26,-1
 60 1642 l 2,27,28
 60 1706 60 1706 120 1751 c 0,29,30
 179 1796 179 1796 259 1796 c 0,31,32
 333 1796 333 1796 392 1752 c 128,-1,33
 451 1708 451 1708 451 1645 c 2,34,-1
 451 1032 l 1,0,-1
EndSplineSet
EndChar

StartChar: d
Encoding: 100 100 32
Width: 515
Flags: W
HStem: 0 118<220 278.855> 1662 106<220 278.855>
VStem: 64 156<118 1662> 300 155<125.223 1655.29>
LayerCount: 2
Fore
SplineSet
300 1627 m 2,0,1
 300 1649 300 1649 279.5 1655.5 c 128,-1,2
 259 1662 259 1662 220 1662 c 1,3,-1
 220 118 l 1,4,5
 259 118 259 118 279.5 125 c 128,-1,6
 300 132 300 132 300 155 c 2,7,-1
 300 1627 l 2,0,1
455 157 m 2,8,9
 455 50 455 50 354 20 c 0,10,11
 287 0 287 0 64 0 c 1,12,-1
 64 1768 l 1,13,14
 290 1768 290 1768 347 1752 c 128,-1,15
 404 1736 404 1736 429.5 1705.5 c 128,-1,16
 455 1675 455 1675 455 1618 c 2,17,-1
 455 157 l 2,8,9
EndSplineSet
EndChar

StartChar: e
Encoding: 101 101 33
Width: 433
Flags: W
HStem: 0 118<217 412> 874 124<217 363> 1662 106<217 412>
VStem: 66 346<0 118 1662 1768> 66 151<118 874 998 1662>
LayerCount: 2
Fore
SplineSet
412 1662 m 1,0,-1
 217 1662 l 1,1,-1
 217 998 l 1,2,-1
 363 998 l 1,3,-1
 363 874 l 1,4,-1
 217 874 l 1,5,-1
 217 118 l 1,6,-1
 412 118 l 1,7,-1
 412 0 l 1,8,-1
 66 0 l 1,9,-1
 66 1768 l 1,10,-1
 412 1768 l 1,11,-1
 412 1662 l 1,0,-1
EndSplineSet
EndChar

StartChar: f
Encoding: 102 102 34
Width: 413
Flags: W
HStem: 0 21G<64 216> 882 123<216 354> 1662 106<216 407>
VStem: 64 152<0 882 1005 1662>
LayerCount: 2
Fore
SplineSet
407 1662 m 1,0,-1
 216 1662 l 1,1,-1
 216 1005 l 1,2,-1
 354 1005 l 1,3,-1
 354 882 l 1,4,-1
 216 882 l 1,5,-1
 216 0 l 1,6,-1
 64 0 l 1,7,-1
 64 1768 l 1,8,-1
 407 1768 l 1,9,-1
 407 1662 l 1,0,-1
EndSplineSet
EndChar

StartChar: g
Encoding: 103 103 35
Width: 487
Flags: W
HStem: -24 114<190.538 285.354> 743 125<223 286> 1686 110<191.037 285.432>
VStem: 48 142<91.8872 1685.19> 223 207<743 868> 286 144<90.0664 743 1029 1684.22>
LayerCount: 2
Fore
SplineSet
430 1029 m 1,0,-1
 286 1029 l 1,1,-1
 286 1651 l 2,2,3
 286 1662 286 1662 273 1674 c 128,-1,4
 260 1686 260 1686 239 1686 c 128,-1,5
 218 1686 218 1686 204 1674 c 128,-1,6
 190 1662 190 1662 190 1651 c 2,7,-1
 190 125 l 2,8,9
 190 113 190 113 205 101.5 c 128,-1,10
 220 90 220 90 239.5 90 c 128,-1,11
 259 90 259 90 272.5 101.5 c 128,-1,12
 286 113 286 113 286 125 c 2,13,-1
 286 743 l 1,14,-1
 223 743 l 1,15,-1
 223 868 l 1,16,-1
 430 868 l 1,17,-1
 430 134 l 2,18,19
 430 70 430 70 373 22 c 0,20,21
 318 -24 318 -24 262 -24 c 128,-1,22
 206 -24 206 -24 171 -11.5 c 128,-1,23
 136 1 136 1 108 23 c 0,24,25
 48 71 48 71 48 137 c 2,26,-1
 48 1637 l 2,27,28
 48 1702 48 1702 106 1750 c 0,29,30
 163 1796 163 1796 241 1796 c 0,31,32
 318 1796 318 1796 374 1750 c 0,33,34
 430 1703 430 1703 430 1638 c 2,35,-1
 430 1029 l 1,0,-1
EndSplineSet
EndChar

StartChar: h
Encoding: 104 104 36
Width: 519
Flags: W
HStem: 0 21G<64 216 300 455> 867 117<216 300> 1748 20G<64 216 300 455> 1748 20G<64 216 300 455>
VStem: 64 152<0 867 984 1768> 300 155<0 867 984 1768>
LayerCount: 2
Fore
SplineSet
300 1768 m 1,0,-1
 455 1768 l 1,1,-1
 455 0 l 1,2,-1
 300 0 l 1,3,-1
 300 867 l 1,4,-1
 216 867 l 1,5,-1
 216 0 l 1,6,-1
 64 0 l 1,7,-1
 64 1768 l 1,8,-1
 216 1768 l 1,9,-1
 216 984 l 1,10,-1
 300 984 l 1,11,-1
 300 1768 l 1,0,-1
EndSplineSet
EndChar

StartChar: i
Encoding: 105 105 37
Width: 284
Flags: W
HStem: 0 21G<64 220> 1748 20G<64 220> 1748 20G<64 220>
VStem: 64 156<0 1768>
LayerCount: 2
Fore
SplineSet
220 1768 m 1,0,-1
 220 0 l 1,1,-1
 64 0 l 1,2,-1
 64 1768 l 1,3,-1
 220 1768 l 1,0,-1
EndSplineSet
EndChar

StartChar: j
Encoding: 106 106 38
Width: 510
Flags: W
HStem: -24 119<206.314 281.476> 1748 20G<288 445> 1748 20G<288 445>
VStem: 53 153<95.262 829> 288 157<104.282 1768>
LayerCount: 2
Fore
SplineSet
204 746 m 1,0,-1
 206 482 l 1,1,-1
 206 127 l 2,2,3
 206 113 206 113 219 104 c 128,-1,4
 232 95 232 95 248.5 95 c 128,-1,5
 265 95 265 95 276.5 104 c 128,-1,6
 288 113 288 113 288 127 c 2,7,-1
 288 1768 l 1,8,-1
 445 1768 l 1,9,-1
 445 127 l 2,10,11
 445 64 445 64 386 20 c 128,-1,12
 327 -24 327 -24 249 -24 c 256,13,14
 171 -24 171 -24 112 20 c 0,15,16
 53 65 53 65 53 127 c 2,17,-1
 53 829 l 1,18,-1
 204 829 l 1,19,-1
 204 746 l 1,0,-1
EndSplineSet
EndChar

StartChar: k
Encoding: 107 107 39
Width: 489
Flags: W
HStem: 0 21G<64 220 312.05 469> 1748 20G<64 220 305.115 463> 1748 20G<64 220 305.115 463>
VStem: 64 156<0 644 1158 1768>
LayerCount: 2
Fore
SplineSet
469 0 m 1,0,-1
 315 0 l 1,1,-1
 220 644 l 1,2,-1
 220 0 l 1,3,-1
 64 0 l 1,4,-1
 64 1768 l 1,5,-1
 220 1768 l 1,6,-1
 220 1158 l 1,7,-1
 308 1768 l 1,8,-1
 463 1768 l 1,9,-1
 349 897 l 1,10,-1
 469 0 l 1,0,-1
EndSplineSet
EndChar

StartChar: l
Encoding: 108 108 40
Width: 363
Flags: W
HStem: 0 118<216 363> 1748 20G<64 216> 1748 20G<64 216>
VStem: 64 152<118 1768>
LayerCount: 2
Fore
SplineSet
216 1768 m 1,0,-1
 216 118 l 1,1,-1
 363 118 l 1,2,-1
 363 0 l 1,3,-1
 64 0 l 1,4,-1
 64 1768 l 1,5,-1
 216 1768 l 1,0,-1
EndSplineSet
EndChar

StartChar: m
Encoding: 109 109 41
Width: 645
Flags: W
HStem: 0 21G<64 216 431 581> 1748 20G<64 231.764 414.159 581> 1748 20G<64 231.764 414.159 581>
VStem: 64 166<1605.42 1768> 64 152<0 980> 295 58<35 182.256> 416 165<1612.27 1768> 431 150<0 980>
LayerCount: 2
Fore
SplineSet
416 1768 m 1,0,-1
 581 1768 l 1,1,-1
 581 0 l 1,2,-1
 431 0 l 1,3,-1
 444 980 l 1,4,-1
 353 35 l 1,5,-1
 295 35 l 1,6,-1
 203 980 l 1,7,-1
 216 0 l 1,8,-1
 64 0 l 1,9,-1
 64 1768 l 1,10,-1
 230 1768 l 1,11,-1
 321 736 l 1,12,-1
 416 1768 l 1,0,-1
EndSplineSet
EndChar

StartChar: n
Encoding: 110 110 42
Width: 524
Flags: W
HStem: 0 21G<64 216 316.646 459> 1748 20G<64 205.434 319 459> 1748 20G<64 205.434 319 459>
VStem: 64 152<0 994 1764.92 1768> 319 140<0 45.3332 741 1768>
LayerCount: 2
Fore
SplineSet
459 0 m 1,0,-1
 319 0 l 1,1,-1
 202 994 l 1,2,-1
 216 0 l 1,3,-1
 64 0 l 1,4,-1
 64 1768 l 1,5,-1
 203 1768 l 1,6,-1
 328 741 l 1,7,-1
 319 1768 l 1,8,-1
 459 1768 l 1,9,-1
 459 0 l 1,0,-1
EndSplineSet
EndChar

StartChar: o
Encoding: 111 111 43
Width: 532
Flags: W
HStem: -24 115<220.341 303.594> 1686 110<227.818 303.984>
VStem: 60 160<92.8474 1674.14> 311 161<101.829 1674.14>
LayerCount: 2
Fore
SplineSet
472 151 m 2,0,1
 472 81 472 81 410 28 c 0,2,3
 349 -24 349 -24 267 -24 c 0,4,5
 181 -24 181 -24 121 28 c 0,6,7
 60 81 60 81 60 157 c 2,8,-1
 60 1617 l 2,9,10
 60 1690 60 1690 121 1744 c 0,11,12
 181 1796 181 1796 267 1796 c 0,13,14
 351 1796 351 1796 410 1746 c 0,15,16
 472 1694 472 1694 472 1620 c 2,17,-1
 472 151 l 2,0,1
311 1645 m 2,18,19
 311 1663 311 1663 298.5 1674.5 c 128,-1,20
 286 1686 286 1686 267.5 1686 c 128,-1,21
 249 1686 249 1686 234.5 1674.5 c 128,-1,22
 220 1663 220 1663 220 1645 c 2,23,-1
 220 127 l 2,24,25
 220 118 220 118 232 104.5 c 128,-1,26
 244 91 244 91 265 91 c 128,-1,27
 286 91 286 91 298.5 101.5 c 128,-1,28
 311 112 311 112 311 127 c 2,29,-1
 311 1645 l 2,18,19
EndSplineSet
EndChar

StartChar: p
Encoding: 112 112 44
Width: 496
Flags: W
HStem: 0 21G<64 216> 820 124<220 279.37> 1662 106<220 278.855>
VStem: 64 152<0 820 944 1662> 300 151<948.645 1656.32>
LayerCount: 2
Fore
SplineSet
449 981 m 2,0,1
 449 830 449 830 216 820 c 1,2,-1
 216 0 l 1,3,-1
 64 0 l 1,4,-1
 64 1768 l 1,5,-1
 259 1768 l 2,6,7
 338 1768 338 1768 394 1724 c 128,-1,8
 450 1680 450 1680 451 1618 c 2,9,-1
 451 1299 l 1,10,-1
 449 1081 l 1,11,-1
 449 981 l 2,0,1
300 1627 m 2,12,13
 300 1651 300 1651 279.5 1656.5 c 128,-1,14
 259 1662 259 1662 220 1662 c 1,15,-1
 220 944 l 1,16,17
 260 944 260 944 280 948.5 c 128,-1,18
 300 953 300 953 300 977 c 2,19,-1
 300 1627 l 2,12,13
EndSplineSet
EndChar

StartChar: q
Encoding: 113 113 45
Width: 532
Flags: W
HStem: 1686 110<227.818 303.984>
VStem: 60 160<91.1868 1674.14> 311 161<101.829 1674.14>
LayerCount: 2
Fore
SplineSet
311 1645 m 2,0,1
 311 1663 311 1663 298.5 1674.5 c 128,-1,2
 286 1686 286 1686 267.5 1686 c 128,-1,3
 249 1686 249 1686 234.5 1674.5 c 128,-1,4
 220 1663 220 1663 220 1645 c 2,5,-1
 220 127 l 2,6,7
 220 118 220 118 232 104.5 c 128,-1,8
 244 91 244 91 265 91 c 128,-1,9
 286 91 286 91 298.5 101.5 c 128,-1,10
 311 112 311 112 311 127 c 2,11,-1
 311 1645 l 2,0,1
472 151 m 2,12,13
 472 81 472 81 410 28 c 0,14,15
 389 10 389 10 362 -3 c 1,16,-1
 487 -98 l 1,17,-1
 422 -187 l 1,18,-1
 208 -17 l 1,19,20
 116 7 116 7 76 86 c 0,21,22
 60 119 60 119 60 157 c 2,23,-1
 60 1617 l 2,24,25
 60 1690 60 1690 121 1744 c 0,26,27
 181 1796 181 1796 267 1796 c 0,28,29
 351 1796 351 1796 410 1746 c 0,30,31
 472 1694 472 1694 472 1620 c 2,32,-1
 472 151 l 2,12,13
EndSplineSet
EndChar

StartChar: r
Encoding: 114 114 46
Width: 503
Flags: W
HStem: 0 21G<64 213 307 455> 857 87<213 276.791> 1662 106<210 276.791>
VStem: 64 149<0 857 944 1662> 307 148<0 846.746 948.645 1656.84>
LayerCount: 2
Fore
SplineSet
455 1053 m 2,0,1
 455 979 455 979 410 934 c 0,2,3
 389 913 389 913 365 903 c 1,4,5
 389 896 389 896 408 879 c 0,6,7
 455 837 455 837 455 773 c 2,8,-1
 455 0 l 1,9,-1
 307 0 l 1,10,-1
 307 816 l 2,11,12
 307 839 307 839 288.5 847 c 128,-1,13
 270 855 270 855 213 857 c 1,14,-1
 213 0 l 1,15,-1
 64 0 l 1,16,-1
 64 1768 l 1,17,18
 287 1768 287 1768 344.5 1752 c 128,-1,19
 402 1736 402 1736 428.5 1705.5 c 128,-1,20
 455 1675 455 1675 455 1618 c 2,21,-1
 455 1053 l 2,0,1
300 1627 m 2,22,23
 300 1652 300 1652 277.5 1657 c 128,-1,24
 255 1662 255 1662 210 1662 c 1,25,-1
 210 944 l 1,26,27
 255 944 255 944 277.5 948.5 c 128,-1,28
 300 953 300 953 300 977 c 2,29,-1
 300 1627 l 2,22,23
EndSplineSet
EndChar

StartChar: s
Encoding: 115 115 47
Width: 472
Flags: W
HStem: -24 118<197.21 296.835> 1681 115<185.844 282.478>
VStem: 31 154<1181.25 1680.46> 46 151<94.2346 644> 283 150<1155 1679.59> 298 151<94.259 568.915>
LayerCount: 2
Fore
SplineSet
234 1681 m 256,0,1
 185 1681 185 1681 185 1642 c 0,2,3
 185 1222 185 1222 311 902 c 1,4,-1
 353 787 l 1,5,6
 449 519 449 519 449 136 c 0,7,8
 449 65 449 65 392 21 c 0,9,10
 298 -24 298 -24 273 -24 c 0,11,12
 271 -24 271 -24 269 -24 c 1,13,14
 204 -24 204 -24 167 -12.5 c 128,-1,15
 130 -1 130 -1 103 20 c 0,16,17
 46 64 46 64 46 133 c 2,18,-1
 46 644 l 1,19,-1
 197 644 l 1,20,-1
 197 136 l 2,21,22
 197 94 197 94 246.5 94 c 128,-1,23
 296 94 296 94 298 136 c 1,24,25
 298 502 298 502 192 778 c 1,26,-1
 144 902 l 257,27,28
 31 1180 31 1180 31 1591 c 0,29,30
 31 1614 31 1614 31 1638 c 1,31,32
 31 1710 31 1710 97 1756 c 0,33,34
 155 1796 155 1796 234 1796 c 256,35,36
 313 1796 313 1796 356 1766 c 0,37,38
 433 1712 433 1712 433 1641 c 2,39,-1
 433 1155 l 1,40,-1
 283 1155 l 1,41,-1
 283 1642 l 2,42,43
 283 1681 283 1681 234 1681 c 256,0,1
EndSplineSet
EndChar

StartChar: t
Encoding: 116 116 48
Width: 407
Flags: W
HStem: 0 21G<130 277> 1662 106<0 130 277 405>
VStem: 130 147<0 1662>
LayerCount: 2
Fore
SplineSet
405 1768 m 1,0,-1
 405 1662 l 1,1,-1
 277 1662 l 1,2,-1
 277 0 l 1,3,-1
 130 0 l 1,4,-1
 130 1662 l 1,5,-1
 0 1662 l 1,6,-1
 0 1768 l 1,7,-1
 405 1768 l 1,0,-1
EndSplineSet
EndChar

StartChar: u
Encoding: 117 117 49
Width: 511
Flags: W
HStem: -24 119<214.562 293.797> 1748 20G<59 214 294 449> 1748 20G<59 214 294 449>
VStem: 59 155<95.0808 1768> 294 155<95.125 1768>
LayerCount: 2
Fore
SplineSet
253 95 m 0,0,1
 294 95 294 95 294 130 c 2,2,-1
 294 1768 l 1,3,-1
 449 1768 l 1,4,-1
 449 125 l 2,5,6
 449 63 449 63 390 19 c 0,7,8
 332 -24 332 -24 273.5 -24 c 128,-1,9
 215 -24 215 -24 180 -12 c 128,-1,10
 145 0 145 0 118 21 c 0,11,12
 59 67 59 67 59 132 c 2,13,-1
 59 1768 l 1,14,-1
 214 1768 l 1,15,-1
 214 130 l 2,16,17
 214 115 214 115 226 105 c 128,-1,18
 238 95 238 95 253 95 c 0,0,1
EndSplineSet
EndChar

StartChar: v
Encoding: 118 118 50
Width: 500
Flags: W
HStem: 0 21G<141.744 361.165> 1748 20G<32 196.983 306.034 463> 1748 20G<32 196.983 306.034 463>
VStem: 32 164<1539.66 1768> 143 217<0 228.343> 307 156<1521.92 1768>
LayerCount: 2
Fore
SplineSet
307 1768 m 1,0,-1
 463 1768 l 1,1,-1
 360 0 l 1,2,-1
 143 0 l 1,3,-1
 32 1768 l 1,4,-1
 196 1768 l 1,5,-1
 252 629 l 1,6,-1
 307 1768 l 1,0,-1
EndSplineSet
EndChar

StartChar: w
Encoding: 119 119 51
Width: 755
Flags: W
HStem: 0 21G<110.106 303.367 447.614 643.871> 1748 20G<32 200.522 297.06 454.954 552.478 720> 1748 20G<32 200.522 297.06 454.954 552.478 720>
VStem: 32 168<1447.16 1768> 298 156<1467.62 1768> 553 167<1438.83 1768>
LayerCount: 2
Fore
SplineSet
518 427 m 1,0,-1
 553 1768 l 1,1,-1
 720 1768 l 1,2,-1
 643 0 l 1,3,-1
 449 0 l 1,4,-1
 375 1068 l 1,5,-1
 302 0 l 1,6,-1
 111 0 l 1,7,-1
 32 1768 l 1,8,-1
 200 1768 l 1,9,-1
 235 427 l 1,10,-1
 298 1768 l 1,11,-1
 454 1768 l 1,12,-1
 518 427 l 1,0,-1
EndSplineSet
EndChar

StartChar: x
Encoding: 120 120 52
Width: 458
Flags: W
HStem: 0 21G<21 175 274.5 435> 1748 20G<21 176.872 283 435> 1748 20G<21 176.872 283 435>
VStem: 21 414
LayerCount: 2
Fore
SplineSet
435 0 m 1,0,-1
 284 0 l 1,1,2
 265 128 265 128 259.5 160.5 c 128,-1,3
 254 193 254 193 250 222 c 2,4,-1
 242 276 l 2,5,6
 238 300 238 300 234 320 c 2,7,-1
 228 360 l 1,8,9
 223 324 223 324 217 289.5 c 0,10,11
 211 256 211 256 206 224 c 2,12,-1
 196 162 l 2,13,14
 191 132 191 132 187 102 c 2,15,-1
 180 47 l 2,16,17
 176 21 176 21 174 0 c 1,18,-1
 21 0 l 1,19,-1
 154 875 l 1,20,-1
 21 1768 l 1,21,-1
 174 1768 l 1,22,-1
 228 1392 l 1,23,24
 229 1401 229 1401 233.5 1430 c 128,-1,25
 238 1459 238 1459 243.5 1498 c 128,-1,26
 249 1537 249 1537 256 1580.5 c 0,27,28
 262 1624 262 1624 268 1662 c 2,29,-1
 278 1730 l 2,30,31
 282 1759 282 1759 284 1768 c 1,32,-1
 435 1768 l 1,33,-1
 304 875 l 1,34,-1
 435 0 l 1,0,-1
EndSplineSet
EndChar

StartChar: y
Encoding: 121 121 53
Width: 490
Flags: W
HStem: 0 21G<167 321> 1748 20G<29 187.428 302.49 458> 1748 20G<29 187.428 302.49 458>
VStem: 167 154<0 799.299>
LayerCount: 2
Fore
SplineSet
321 687 m 1,0,-1
 321 0 l 1,1,-1
 167 0 l 1,2,-1
 167 687 l 1,3,-1
 29 1768 l 1,4,-1
 185 1768 l 1,5,-1
 244 1282 l 1,6,-1
 305 1768 l 1,7,-1
 458 1768 l 1,8,-1
 321 687 l 1,0,-1
EndSplineSet
EndChar

StartChar: z
Encoding: 122 122 54
Width: 379
Flags: W
HStem: 0 118<195 357> 1662 106<29 206>
VStem: 28 329<0 118 1662 1768>
LayerCount: 2
Fore
SplineSet
354 1768 m 1,0,-1
 195 118 l 1,1,-1
 357 118 l 1,2,-1
 357 0 l 1,3,-1
 28 0 l 1,4,-1
 206 1662 l 1,5,-1
 29 1662 l 1,6,-1
 29 1768 l 1,7,-1
 354 1768 l 1,0,-1
EndSplineSet
EndChar

StartChar: Oslash
Encoding: 216 216 55
Width: 543
Flags: W
HStem: -24 126<224.538 324.742> 1952 123<224.323 324.496>
VStem: 60 156<116.438 315.955 627 1937.56> 325 158<103.294 1425 1736.91 1950.89>
LayerCount: 2
Fore
SplineSet
60 1903 m 2,0,1
 60 1972 60 1972 122 2024 c 0,2,3
 183 2074 183 2074 269 2075 c 0,4,5
 357 2075 357 2075 420 2023 c 128,-1,6
 483 1971 483 1971 483 1901 c 2,7,-1
 483 151 l 2,8,9
 483 78 483 78 420 26 c 0,10,11
 358 -24 358 -24 269 -24 c 1,12,13
 184 -24 184 -24 122 26 c 128,-1,14
 60 76 60 76 60 144 c 2,15,-1
 60 1903 l 2,0,1
216 148 m 1,16,17
 216 130 216 130 230.5 116 c 128,-1,18
 245 102 245 102 269 102 c 256,19,20
 293 102 293 102 309 116 c 128,-1,21
 325 130 325 130 325 148 c 2,22,-1
 325 1425 l 1,23,-1
 216 148 l 1,16,17
325 1905 m 1,24,25
 325 1924 325 1924 308 1938 c 128,-1,26
 291 1952 291 1952 268 1952 c 128,-1,27
 245 1952 245 1952 230.5 1938 c 128,-1,28
 216 1924 216 1924 216 1905 c 2,29,-1
 216 627 l 1,30,-1
 325 1905 l 1,24,25
EndSplineSet
EndChar

StartChar: oslash
Encoding: 248 248 56
Width: 532
Flags: W
HStem: -24 115<221.841 305.094> 1686 110<221.841 305.485>
VStem: 62 159<92.8474 544.557 846 1685.25> 312 161<101.829 970 1287.45 1674.14>
LayerCount: 2
Fore
SplineSet
473 151 m 2,0,1
 473 80 473 80 412 28 c 128,-1,2
 351 -24 351 -24 269 -24 c 0,3,4
 183 -24 183 -24 123 28 c 0,5,6
 62 81 62 81 62 157 c 2,7,-1
 62 1617 l 2,8,9
 62 1690 62 1690 123 1744 c 0,10,11
 183 1796 183 1796 269 1796 c 0,12,13
 353 1796 353 1796 412 1746 c 0,14,15
 473 1695 473 1695 473 1620 c 2,16,-1
 473 151 l 2,0,1
312 970 m 1,17,-1
 221 465 l 1,18,-1
 221 127 l 2,19,20
 221 118 221 118 233 104.5 c 128,-1,21
 245 91 245 91 266 91 c 128,-1,22
 287 91 287 91 299.5 101.5 c 128,-1,23
 312 112 312 112 312 127 c 2,24,-1
 312 970 l 1,17,-1
312 1370 m 1,25,-1
 312 1645 l 2,26,27
 312 1663 312 1663 299.5 1674.5 c 128,-1,28
 287 1686 287 1686 269 1686 c 256,29,30
 251 1686 251 1686 236 1674.5 c 128,-1,31
 221 1663 221 1663 221 1645 c 2,32,-1
 221 846 l 1,33,-1
 312 1370 l 1,25,-1
EndSplineSet
EndChar

StartChar: A
Encoding: 65 65 58
Width: 489
Flags: W
HStem: 0 21G<20 170.159 316.927 469> 466 104<204 283> 2028 20G<131.896 355.123>
VStem: 133 221<1792.69 2048>
LayerCount: 2
Fore
SplineSet
469 0 m 1,0,-1
 318 0 l 1,1,-1
 293 466 l 1,2,-1
 196 466 l 1,3,-1
 169 0 l 1,4,-1
 20 0 l 1,5,-1
 133 2048 l 1,6,-1
 354 2048 l 1,7,-1
 469 0 l 1,0,-1
283 570 m 1,8,-1
 244 1715 l 1,9,-1
 204 570 l 1,10,-1
 283 570 l 1,8,-1
EndSplineSet
EndChar

StartChar: bracketright
Encoding: 93 93 60
Width: 456
Flags: W
HStem: -127 134<-1 169> 2044 137<-1 169>
VStem: -1 329<-127 7 2044 2181> 169 159<7 2044>
LayerCount: 2
Fore
SplineSet
328 2181 m 1,0,-1
 328 -127 l 1,1,-1
 -1 -127 l 1,2,-1
 -1 7 l 1,3,-1
 169 7 l 1,4,-1
 169 2044 l 1,5,-1
 -1 2044 l 1,6,-1
 -1 2181 l 1,7,-1
 328 2181 l 1,0,-1
EndSplineSet
EndChar

StartChar: eight
Encoding: 56 56 64
Width: 508
Flags: W
HStem: -13 138<209.977 300.761> 1918 136<210.616 294.02>
VStem: 52 158<126.719 659.562 1234.36 1917.84> 301 154<125.906 919.891 1235.35 1903.56>
LayerCount: 2
Fore
SplineSet
455 1551 m 2,0,1
 455 1375 455 1375 428 1287 c 0,2,3
 391 1166 391 1166 332 1072 c 1,4,5
 392 974 392 974 413 912 c 0,6,7
 455 788 455 788 455 643 c 2,8,-1
 455 161 l 2,9,10
 455 88 455 88 397 37.5 c 128,-1,11
 339 -13 339 -13 256 -13 c 0,12,13
 177 -13 177 -13 114.5 38.5 c 128,-1,14
 52 90 52 90 52 161 c 0,15,16
 52 628 52 628 65.5 736 c 128,-1,17
 79 844 79 844 93 894 c 0,18,19
 119 986 119 986 178 1072 c 1,20,21
 116 1175 116 1175 94 1243 c 0,22,23
 52 1373 52 1373 52 1554 c 2,24,-1
 52 1879 l 2,25,26
 52 1951 52 1951 112 2002 c 0,27,28
 173 2054 173 2054 256 2054 c 0,29,30
 336 2054 336 2054 396 2004 c 0,31,32
 456 1953 456 1953 455 1883 c 2,33,-1
 455 1551 l 2,0,1
209 174 m 1,34,35
 210 158 210 158 221 141.5 c 128,-1,36
 232 125 232 125 254.5 125 c 128,-1,37
 277 125 277 125 289 141.5 c 128,-1,38
 301 158 301 158 301 174 c 2,39,-1
 301 458 l 2,40,41
 301 692 301 692 283.5 804.5 c 128,-1,42
 266 917 266 917 256 941 c 1,43,44
 224 870 224 870 212 607 c 0,45,46
 208 531 208 531 209 455 c 2,47,-1
 209 174 l 1,34,35
256 1189 m 1,48,49
 301 1294 301 1294 301 1534 c 2,50,-1
 301 1868 l 2,51,52
 301 1890 301 1890 289 1904 c 128,-1,53
 277 1918 277 1918 256 1918 c 0,54,55
 210 1918 210 1918 210 1868 c 2,56,-1
 210 1534 l 2,57,58
 210 1374 210 1374 228 1292.5 c 128,-1,59
 246 1211 246 1211 256 1189 c 1,48,49
EndSplineSet
EndChar

StartChar: six
Encoding: 54 54 65
Width: 524
Flags: W
HStem: -13 139<216.273 295.108> 1049 134<216 307.604> 1919 135<216.576 300.563>
VStem: 60 156<127.24 1036 1173 1918.01> 308 155<137.345 1047.78 1406 1907.65>
LayerCount: 2
Fore
SplineSet
216 1173 m 1,0,1
 218 1173 218 1173 236.5 1178 c 128,-1,2
 255 1183 255 1183 285 1183 c 128,-1,3
 315 1183 315 1183 350 1169.5 c 128,-1,4
 385 1156 385 1156 410 1132 c 0,5,6
 463 1082 463 1082 463 1012 c 2,7,-1
 463 160 l 2,8,9
 463 88 463 88 404 36 c 0,10,11
 347 -14 347 -14 265 -13 c 1,12,13
 179 -13 179 -13 119.5 39 c 128,-1,14
 60 91 60 91 60 165 c 2,15,-1
 60 1880 l 2,16,17
 60 1955 60 1955 120 2004 c 0,18,19
 181 2054 181 2054 265 2054 c 0,20,21
 345 2054 345 2054 404 2004 c 128,-1,22
 463 1954 463 1954 463 1880 c 2,23,-1
 463 1406 l 1,24,-1
 308 1406 l 1,25,-1
 308 1880 l 2,26,27
 308 1897 308 1897 295.5 1908 c 128,-1,28
 283 1919 283 1919 264.5 1919 c 128,-1,29
 246 1919 246 1919 231 1908 c 128,-1,30
 216 1897 216 1897 216 1880 c 2,31,-1
 216 1173 l 1,0,1
294.5 1035 m 128,-1,33
 281 1049 281 1049 263 1049 c 128,-1,34
 245 1049 245 1049 231.5 1042.5 c 128,-1,35
 218 1036 218 1036 216 1036 c 1,36,-1
 216 165 l 2,37,38
 216 148 216 148 231 137 c 128,-1,39
 246 126 246 126 264.5 126 c 128,-1,40
 283 126 283 126 295.5 137 c 128,-1,41
 308 148 308 148 308 165 c 2,42,-1
 308 1007 l 2,43,32
 308 1021 308 1021 294.5 1035 c 128,-1,33
EndSplineSet
EndChar

StartChar: nine
Encoding: 57 57 66
Width: 525
Flags: W
HStem: -14 136<216.033 307.424> 857 137<216.033 308> 1917 135<216.602 307.885>
VStem: 60 156<122.381 637 994.381 1915.5> 308 157<123.082 871 1007 1915.73>
LayerCount: 2
Fore
SplineSet
308 871 m 1,0,1
 305 871 305 871 287.5 864 c 128,-1,2
 270 857 270 857 239.5 857 c 128,-1,3
 209 857 209 857 174.5 870.5 c 128,-1,4
 140 884 140 884 116 908 c 0,5,6
 65 958 65 958 60 1032 c 1,7,-1
 60 1880 l 2,8,9
 60 1954 60 1954 120 2004 c 0,10,11
 177 2052 177 2052 259 2052 c 0,12,13
 345 2052 345 2052 405 2001.5 c 128,-1,14
 465 1951 465 1951 465 1875 c 2,15,-1
 465 162 l 2,16,17
 465 90 465 90 404 38 c 128,-1,18
 343 -14 343 -14 259 -14 c 0,19,20
 180 -14 180 -14 120 36 c 128,-1,21
 60 86 60 86 60 160 c 2,22,-1
 60 637 l 1,23,-1
 216 637 l 1,24,-1
 216 162 l 2,25,26
 216 146 216 146 229 134 c 128,-1,27
 242 122 242 122 259.5 122 c 128,-1,28
 277 122 277 122 292.5 134 c 128,-1,29
 308 146 308 146 308 162 c 2,30,-1
 308 871 l 1,0,1
230 1006.5 m 128,-1,32
 244 994 244 994 262 994 c 128,-1,33
 280 994 280 994 292.5 1000.5 c 128,-1,34
 305 1007 305 1007 308 1007 c 1,35,-1
 308 1875 l 2,36,37
 308 1891 308 1891 292.5 1904 c 128,-1,38
 277 1917 277 1917 259.5 1917 c 128,-1,39
 242 1917 242 1917 229 1904 c 128,-1,40
 216 1891 216 1891 216 1875 c 2,41,-1
 216 1035 l 2,42,31
 216 1019 216 1019 230 1006.5 c 128,-1,32
EndSplineSet
EndChar

StartChar: zero
Encoding: 48 48 67
Width: 525
Flags: W
HStem: 0 137<224.538 301.281> 1903 134<227.945 301.086>
VStem: 60 156<148.861 1891.14> 308 157<149.376 1891.14>
LayerCount: 2
Fore
SplineSet
465 172 m 2,0,1
 466 100 466 100 406 50 c 0,2,3
 347 0 347 0 265 0 c 0,4,5
 181 0 181 0 120 52 c 0,6,7
 60 103 60 103 60 178 c 2,8,-1
 60 1862 l 2,9,10
 60 1934 60 1934 120 1985 c 0,11,12
 181 2037 181 2037 265 2037 c 0,13,14
 346 2037 346 2037 406 1987 c 128,-1,15
 466 1937 466 1937 465 1863 c 2,16,-1
 465 172 l 2,0,1
308 1862 m 2,17,18
 308 1880 308 1880 296 1891.5 c 128,-1,19
 284 1903 284 1903 265 1903 c 256,20,21
 246 1903 246 1903 233.5 1891.5 c 128,-1,22
 221 1880 221 1880 221 1863 c 2,23,-1
 221 1793 l 2,24,25
 221 1740 221 1740 220.5 1658.5 c 128,-1,26
 220 1577 220 1577 219.5 1471 c 0,27,28
 218 1364 218 1364 218 1242 c 2,29,-1
 216 715 l 2,30,31
 216 578 216 578 216 442 c 2,32,-1
 216 178 l 1,33,34
 218 160 218 160 231.5 148.5 c 128,-1,35
 245 137 245 137 264.5 137 c 128,-1,36
 284 137 284 137 296 149 c 128,-1,37
 308 161 308 161 308 178 c 2,38,-1
 308 1862 l 2,17,18
EndSplineSet
EndChar

StartChar: registered
Encoding: 174 174 69
Width: 1714
Flags: W
HStem: 413 143<614.304 1096.25> 1204 85<802 866.822> 1700 114<801 866.822> 1928 143<612.289 1101.1>
VStem: 28 153<996.744 1483.51> 659 143<694 1204 1289 1700> 903 140<694 1191.81 1294.16 1694.84> 1533 153<993.709 1489.29>
LayerCount: 2
Fore
SplineSet
1043 1400 m 2,0,1
 1043 1327 1043 1327 997 1281 c 0,2,3
 976 1260 976 1260 952 1250 c 1,4,5
 976 1241 976 1241 995 1224 c 0,6,7
 1043 1183 1043 1183 1043 1119 c 2,8,-1
 1043 694 l 1,9,-1
 903 694 l 1,10,-1
 903 1162 l 2,11,12
 903 1186 903 1186 889 1192 c 0,13,14
 865 1204 865 1204 802 1204 c 1,15,-1
 802 694 l 1,16,-1
 659 694 l 1,17,-1
 659 1814 l 1,18,19
 879 1814 879 1814 935 1798 c 128,-1,20
 991 1782 991 1782 1017 1752 c 128,-1,21
 1043 1722 1043 1722 1043 1666 c 2,22,-1
 1043 1400 l 2,0,1
889 1666 m 2,23,24
 889 1690 889 1690 867.5 1695 c 128,-1,25
 846 1700 846 1700 801 1700 c 1,26,-1
 801 1289 l 1,27,28
 846 1289 846 1289 867.5 1294 c 128,-1,29
 889 1299 889 1299 889 1324 c 2,30,-1
 889 1666 l 2,23,24
28 1242 m 256,31,32
 28 1467 28 1467 141 1660 c 0,33,34
 250 1846 250 1846 439 1957 c 0,35,36
 633 2071 633 2071 857 2071 c 256,37,38
 1081 2071 1081 2071 1275 1957 c 0,39,40
 1462 1847 1462 1847 1572 1660 c 0,41,42
 1686 1466 1686 1466 1686 1242 c 256,43,44
 1686 1018 1686 1018 1572 824 c 0,45,46
 1461 635 1461 635 1275 526 c 0,47,48
 1082 413 1082 413 857 413 c 257,49,50
 632 413 632 413 439 526 c 0,51,52
 251 636 251 636 141 824 c 0,53,54
 28 1017 28 1017 28 1242 c 256,31,32
181 1218 m 0,55,56
 181 1100 181 1100 233.5 975 c 128,-1,57
 286 850 286 850 377 757 c 128,-1,58
 468 664 468 664 591.5 610 c 128,-1,59
 715 556 715 556 833 556 c 128,-1,60
 951 556 951 556 1038 580.5 c 128,-1,61
 1125 605 1125 605 1200 649.5 c 128,-1,62
 1275 694 1275 694 1336.5 756.5 c 0,63,64
 1398 820 1398 820 1442 896 c 0,65,66
 1534 1057 1534 1057 1533 1242 c 0,67,68
 1532 1525 1532 1525 1336 1726 c 0,69,70
 1139 1928 1139 1928 857 1928 c 0,71,72
 573 1928 573 1928 377 1726 c 128,-1,73
 181 1524 181 1524 181 1218 c 0,55,56
EndSplineSet
EndChar

StartChar: copyright
Encoding: 169 169 70
Width: 1714
Flags: W
HStem: 413 143<614.304 1096.25> 676 119<798.019 901.278> 1679 117<798.176 900.958> 1928 143<612.289 1101.1>
VStem: 28 153<996.744 1483.51> 643 155<795.652 1677.49> 902 151<797.438 1134 1337 1676.74> 1533 153<993.709 1489.29>
LayerCount: 2
Fore
SplineSet
1053 1337 m 1,0,-1
 902 1337 l 1,1,-1
 902 1642 l 2,2,3
 902 1664 902 1664 866 1676 c 0,4,5
 857 1679 857 1679 844.5 1679 c 128,-1,6
 832 1679 832 1679 815 1668.5 c 128,-1,7
 798 1658 798 1658 798 1642 c 2,8,-1
 798 827 l 2,9,10
 798 816 798 816 814 805.5 c 128,-1,11
 830 795 830 795 844.5 795 c 128,-1,12
 859 795 859 795 868 798 c 0,13,14
 876 802 876 802 884 806 c 0,15,16
 902 816 902 816 902 827 c 2,17,-1
 902 1134 l 1,18,-1
 1053 1134 l 1,19,-1
 1053 827 l 2,20,21
 1054 766 1054 766 990 720 c 0,22,23
 928 676 928 676 869 676 c 128,-1,24
 810 676 810 676 772.5 688 c 0,25,26
 734 700 734 700 706 720 c 0,27,28
 642 766 642 766 643 827 c 2,29,-1
 643 1642 l 2,30,31
 642 1704 642 1704 706 1751 c 0,32,33
 767 1796 767 1796 851 1796 c 0,34,35
 928 1796 928 1796 990 1752 c 0,36,37
 1054 1707 1054 1707 1053 1645 c 2,38,-1
 1053 1337 l 1,0,-1
28 1242 m 256,39,40
 28 1467 28 1467 141 1660 c 0,41,42
 250 1846 250 1846 439 1957 c 0,43,44
 633 2071 633 2071 857 2071 c 256,45,46
 1081 2071 1081 2071 1275 1957 c 0,47,48
 1462 1847 1462 1847 1572 1660 c 0,49,50
 1686 1466 1686 1466 1686 1242 c 256,51,52
 1686 1018 1686 1018 1572 824 c 0,53,54
 1461 635 1461 635 1275 526 c 0,55,56
 1082 413 1082 413 857 413 c 257,57,58
 632 413 632 413 439 526 c 0,59,60
 251 636 251 636 141 824 c 0,61,62
 28 1017 28 1017 28 1242 c 256,39,40
181 1218 m 0,63,64
 181 1100 181 1100 233.5 975 c 128,-1,65
 286 850 286 850 377 757 c 128,-1,66
 468 664 468 664 591.5 610 c 128,-1,67
 715 556 715 556 833 556 c 128,-1,68
 951 556 951 556 1038 580.5 c 128,-1,69
 1125 605 1125 605 1200 649.5 c 128,-1,70
 1275 694 1275 694 1336.5 756.5 c 0,71,72
 1398 820 1398 820 1442 896 c 0,73,74
 1534 1057 1534 1057 1533 1242 c 0,75,76
 1532 1525 1532 1525 1336 1726 c 0,77,78
 1139 1928 1139 1928 857 1928 c 0,79,80
 573 1928 573 1928 377 1726 c 128,-1,81
 181 1524 181 1524 181 1218 c 0,63,64
EndSplineSet
EndChar

StartChar: one
Encoding: 49 49 71
Width: 462
Flags: W
HStem: 0 134<14 162 321 451> 1908 136<14 162>
VStem: 162 159<134 1908>
LayerCount: 2
Fore
SplineSet
14 134 m 1,0,-1
 162 134 l 1,1,-1
 162 1908 l 1,2,-1
 14 1908 l 1,3,-1
 14 2044 l 1,4,-1
 321 2044 l 1,5,-1
 321 134 l 1,6,-1
 451 134 l 1,7,-1
 451 0 l 1,8,-1
 14 0 l 1,9,-1
 14 134 l 1,0,-1
EndSplineSet
EndChar

StartChar: exclam
Encoding: 33 33 72
Width: 301
Flags: W
HStem: 0 175<70 228> 2028 20G<52 248>
VStem: 52 196<1578.97 2048> 70 158<0 175> 105 90<314 783.031>
LayerCount: 2
Fore
SplineSet
248 2048 m 1,0,-1
 195 314 l 1,1,-1
 105 314 l 1,2,-1
 52 2048 l 1,3,-1
 248 2048 l 1,0,-1
228 175 m 1,4,-1
 228 0 l 1,5,-1
 70 0 l 1,6,-1
 70 175 l 1,7,-1
 228 175 l 1,4,-1
EndSplineSet
EndChar

StartChar: ampersand
Encoding: 38 38 73
Width: 571
Flags: W
HStem: -24 126<217.068 317.036> 739 132<483 584> 997 136<247.543 328> 1946 129<217.061 325.25>
VStem: 60 156<104 989.585 1146.64 1944.8> 326 258<742 871> 326 157<116.438 739 1252 1945.31>
LayerCount: 2
Fore
SplineSet
483 1252 m 1,0,-1
 326 1252 l 1,1,-1
 326 1905 l 2,2,3
 326 1921 326 1921 310.5 1933.5 c 128,-1,4
 295 1946 295 1946 271.5 1946 c 128,-1,5
 248 1946 248 1946 232 1933.5 c 128,-1,6
 216 1921 216 1921 216 1905 c 2,7,-1
 216 1235 l 2,8,9
 216 1166 216 1166 245 1146 c 0,10,11
 263 1134 263 1134 328 1133 c 1,12,-1
 328 997 l 1,13,14
 264 997 264 997 247 990 c 0,15,16
 216 977 216 977 216 927 c 2,17,-1
 216 148 l 2,18,19
 216 130 216 130 232 116 c 128,-1,20
 248 102 248 102 271.5 102 c 128,-1,21
 295 102 295 102 310.5 116 c 128,-1,22
 326 130 326 130 326 148 c 2,23,-1
 326 871 l 1,24,-1
 585 871 l 1,25,-1
 584 742 l 1,26,-1
 483 739 l 1,27,-1
 483 144 l 2,28,29
 483 76 483 76 420 26 c 128,-1,30
 357 -24 357 -24 269 -24 c 1,31,32
 184 -24 184 -24 122 26 c 0,33,34
 60 78 60 78 60 148 c 2,35,-1
 60 931 l 2,36,37
 60 1011 60 1011 120 1050 c 1,38,39
 145 1068 145 1068 181 1077 c 1,40,41
 147 1084 147 1084 122 1102 c 0,42,43
 60 1148 60 1148 60 1235 c 2,44,-1
 60 1905 l 2,45,46
 60 1975 60 1975 122 2025 c 128,-1,47
 184 2075 184 2075 269 2075 c 0,48,49
 358 2075 358 2075 420 2026 c 0,50,51
 483 1976 483 1976 483 1905 c 2,52,-1
 483 1252 l 1,0,-1
EndSplineSet
EndChar

StartChar: Thorn
Encoding: 222 222 76
Width: 522
Flags: W
HStem: 0 21G<64 220> 532 134<220 296.758> 1645 123<220 292.121> 2028 20G<64 220>
VStem: 64 156<0 532 666 1645 1768 2048> 321 159<674.772 1634.68>
LayerCount: 2
Fore
SplineSet
480 708 m 2,0,1
 480 610 480 610 413.5 571 c 128,-1,2
 347 532 347 532 220 532 c 1,3,-1
 220 0 l 1,4,-1
 64 0 l 1,5,-1
 64 2048 l 1,6,-1
 220 2048 l 1,7,-1
 220 1768 l 1,8,-1
 267 1768 l 2,9,10
 357 1768 357 1768 417 1718 c 0,11,12
 480 1666 480 1666 480 1581 c 2,13,-1
 480 708 l 2,0,1
321 1595 m 2,14,15
 321 1625 321 1625 293 1635 c 128,-1,16
 265 1645 265 1645 220 1645 c 1,17,-1
 220 666 l 1,18,19
 274 666 274 666 297.5 674.5 c 128,-1,20
 321 683 321 683 321 717 c 2,21,-1
 321 1595 l 2,14,15
EndSplineSet
EndChar

StartChar: germandbls
Encoding: 223 223 77
Width: 543
Flags: W
HStem: 0 132<216 297.519> 1128 138<216 306.953> 1952 123<216.933 308.498>
VStem: 60 156<-237 0 132 1128 1266 1950.03> 325 158<136.256 1115.1 1286.11 1937.56>
LayerCount: 2
Fore
SplineSet
60 1873 m 2,0,1
 60 1970 60 1970 130 2026 c 0,2,3
 190 2074 190 2074 269 2075 c 128,-1,4
 348 2076 348 2076 410 2028 c 0,5,6
 482 1972 482 1972 483 1876 c 2,7,-1
 483 1348 l 2,8,9
 483 1303 483 1303 456.5 1258.5 c 128,-1,10
 430 1214 430 1214 374 1197 c 1,11,12
 454 1174 454 1174 476 1096 c 0,13,14
 482 1073 482 1073 483 1051 c 2,15,-1
 483 175 l 2,16,17
 482 105 482 105 420 52 c 0,18,19
 358 0 358 0 272 0 c 2,20,-1
 216 0 l 1,21,-1
 216 -237 l 1,22,-1
 60 -237 l 1,23,-1
 60 1873 l 2,0,1
325 1071 m 2,24,25
 325 1103 325 1103 307.5 1115.5 c 128,-1,26
 290 1128 290 1128 274 1128 c 2,27,-1
 216 1128 l 1,28,-1
 216 132 l 1,29,30
 283 132 283 132 298 136 c 0,31,32
 325 144 325 144 325 175 c 2,33,-1
 325 1071 l 2,24,25
216 1266 m 1,34,-1
 281 1266 l 2,35,36
 311 1266 311 1266 318 1285.5 c 128,-1,37
 325 1305 325 1305 325 1334 c 2,38,-1
 325 1896 l 2,39,40
 325 1924 325 1924 309 1938 c 128,-1,41
 293 1952 293 1952 270 1952 c 0,42,43
 216 1952 216 1952 216 1896 c 2,44,-1
 216 1266 l 1,34,-1
EndSplineSet
EndChar

StartChar: OE
Encoding: 338 338 78
Width: 701
Flags: W
HStem: -24 126<223.69 324.578> 0 130<483 692> 1019 139<483 637> 1912 136<483 692> 1952 122.5<230.955 324.375>
VStem: 60 156<116.438 1937.56> 325 158<130.004 1019 1158 1911.95>
LayerCount: 2
Fore
SplineSet
377 0 m 1,0,1
 325 -24 325 -24 276 -24 c 128,-1,2
 227 -24 227 -24 189 -10.5 c 0,3,4
 150 3 150 3 122 26 c 0,5,6
 60 76 60 76 60 144 c 2,7,-1
 60 1903 l 2,8,9
 60 1972 60 1972 122 2024 c 0,10,11
 183 2074 183 2074 256.5 2074.5 c 128,-1,12
 330 2075 330 2075 381 2048 c 1,13,-1
 692 2048 l 1,14,-1
 692 1912 l 1,15,-1
 483 1912 l 1,16,-1
 483 1158 l 1,17,-1
 637 1158 l 1,18,-1
 637 1019 l 1,19,-1
 483 1019 l 1,20,-1
 483 130 l 1,21,-1
 692 130 l 1,22,-1
 692 0 l 1,23,-1
 377 0 l 1,0,1
216 148 m 2,24,25
 216 130 216 130 230.5 116 c 128,-1,26
 245 102 245 102 269 102 c 256,27,28
 293 102 293 102 309 116 c 128,-1,29
 325 130 325 130 325 148 c 2,30,-1
 325 1905 l 2,31,32
 325 1924 325 1924 308 1938 c 128,-1,33
 291 1952 291 1952 268 1952 c 128,-1,34
 245 1952 245 1952 230.5 1938 c 128,-1,35
 216 1924 216 1924 216 1905 c 2,36,-1
 216 148 l 2,24,25
EndSplineSet
EndChar

StartChar: Eth
Encoding: 208 208 80
Width: 566
Flags: W
HStem: 0 140<230 309.488> 948 141<14 69 230 288> 1912 136<230 340.021>
VStem: 14 274<948 1089> 69 161<140 948 1089 1912> 342 156<146.35 1906.48>
LayerCount: 2
Fore
SplineSet
498 192 m 2,0,1
 498 102 498 102 427 49 c 0,2,3
 362 0 362 0 272 0 c 2,4,-1
 69 0 l 1,5,-1
 69 948 l 1,6,-1
 14 948 l 1,7,-1
 14 1089 l 1,8,-1
 69 1089 l 1,9,-1
 69 2048 l 1,10,-1
 272 2048 l 2,11,12
 361 2048 361 2048 424 2002 c 0,13,14
 498 1948 498 1948 498 1849 c 2,15,-1
 498 192 l 2,0,1
288 948 m 1,16,-1
 230 948 l 1,17,-1
 230 140 l 1,18,19
 294 140 294 140 310 146 c 0,20,21
 342 157 342 157 342 193 c 2,22,-1
 342 1851 l 2,23,24
 342 1908 342 1908 276 1911 c 0,25,26
 255 1912 255 1912 230 1912 c 1,27,-1
 230 1089 l 1,28,-1
 288 1089 l 1,29,-1
 288 948 l 1,16,-1
EndSplineSet
EndChar

StartChar: AE
Encoding: 198 198 82
Width: 686
Flags: W
HStem: 0 130<472 676> 445 139<235 311> 1019 139<472 624> 1912 136<475 676>
VStem: 312 160<130 445 584 1019> 343 129<1206.66 1712>
LayerCount: 2
Fore
SplineSet
676 1912 m 1,0,-1
 475 1912 l 1,1,-1
 472 1158 l 1,2,-1
 624 1158 l 1,3,-1
 624 1019 l 1,4,-1
 472 1019 l 1,5,-1
 472 130 l 1,6,-1
 676 130 l 1,7,-1
 676 0 l 1,8,-1
 319 0 l 1,9,-1
 312 445 l 1,10,-1
 221 445 l 1,11,-1
 168 0 l 1,12,-1
 7 0 l 1,13,-1
 248 2048 l 1,14,-1
 676 2048 l 1,15,-1
 676 1912 l 1,0,-1
311 584 m 1,16,-1
 343 1712 l 1,17,-1
 235 584 l 1,18,-1
 311 584 l 1,16,-1
EndSplineSet
EndChar

StartChar: oe
Encoding: 339 339 83
Width: 685
Flags: W
HStem: -24 115<228.703 304.48> 0 118<472 666> 874 124<472 617> 1662 106<472 666> 1686 110<224.737 306.702>
VStem: 60 160<104.417 1685.25> 311 161<118.064 874 998 1660.88>
LayerCount: 2
Fore
SplineSet
276 1796 m 0,0,1
 327 1796 327 1796 378 1768 c 1,2,-1
 666 1768 l 1,3,-1
 666 1662 l 1,4,-1
 472 1662 l 1,5,-1
 472 998 l 1,6,-1
 617 998 l 1,7,-1
 617 874 l 1,8,-1
 472 874 l 1,9,-1
 472 118 l 1,10,-1
 666 118 l 1,11,-1
 666 0 l 1,12,-1
 368 0 l 1,13,14
 324 -24 324 -24 274.5 -24 c 128,-1,15
 225 -24 225 -24 187 -10 c 128,-1,16
 149 4 149 4 121 28 c 0,17,18
 60 81 60 81 60 157 c 2,19,-1
 60 1617 l 2,20,21
 60 1690 60 1690 121 1744 c 0,22,23
 181 1796 181 1796 276 1796 c 0,0,1
311 1597 m 2,24,25
 311 1686 311 1686 267 1686 c 0,26,27
 220 1686 220 1686 220 1597 c 2,28,-1
 220 176 l 2,29,30
 220 117 220 117 234.5 104 c 128,-1,31
 249 91 249 91 267.5 91 c 128,-1,32
 286 91 286 91 298.5 101.5 c 128,-1,33
 311 112 311 112 311 127 c 2,34,-1
 311 1597 l 2,24,25
EndSplineSet
EndChar

StartChar: eth
Encoding: 240 240 85
Width: 545
Flags: W
HStem: -14 137<215.065 304.933> 1046 136<216.08 307> 1918 134<57 191.374>
VStem: 59 155<124.631 1044.31> 295 153<1625 1791.53> 307 156<123.228 1032 1169 1464>
LayerCount: 2
Fore
SplineSet
458 1506 m 1,0,1
 463 1408 463 1408 463 1168 c 2,2,-1
 463 164 l 2,3,4
 463 88 463 88 403 37 c 128,-1,5
 343 -14 343 -14 258 -14 c 0,6,7
 176 -14 176 -14 118 34 c 0,8,9
 58 84 58 84 59 158 c 2,10,-1
 59 1008 l 1,11,12
 61 1079 61 1079 114 1130 c 0,13,14
 168 1182 168 1182 249 1182 c 0,15,16
 269 1182 269 1182 286.5 1175.5 c 128,-1,17
 304 1169 304 1169 307 1169 c 1,18,-1
 307 1323 l 2,19,20
 307 1396 307 1396 304 1464 c 1,21,-1
 57 1396 l 1,22,-1
 57 1516 l 1,23,-1
 295 1583 l 1,24,25
 280 1753 280 1753 230 1830 c 0,26,27
 174 1918 174 1918 57 1918 c 1,28,-1
 57 2052 l 1,29,30
 338 2052 338 2052 413 1804 c 0,31,32
 437 1725 437 1725 448 1625 c 1,33,-1
 559 1656 l 1,34,-1
 559 1536 l 1,35,-1
 458 1506 l 1,0,1
258 123 m 0,36,37
 307 123 307 123 307 183 c 2,38,-1
 307 1032 l 1,39,40
 304 1032 304 1032 290.5 1039 c 128,-1,41
 277 1046 277 1046 253 1046 c 0,42,43
 214 1046 214 1046 214 983 c 2,44,-1
 214 164 l 2,45,46
 214 147 214 147 227.5 135 c 128,-1,47
 241 123 241 123 258 123 c 0,36,37
EndSplineSet
EndChar

StartChar: thorn
Encoding: 254 254 88
Width: 508
Flags: W
HStem: 260 124<220 289.429> 1373 115<220 288.914>
VStem: 64 156<-280 260 384 1373 1488 1814> 308 151<395.347 1360.4>
LayerCount: 2
Fore
SplineSet
458 435 m 2,0,1
 458 271 458 271 216 260 c 1,2,-1
 216 -280 l 1,3,-1
 64 -280 l 1,4,-1
 63 1814 l 1,5,-1
 220 1814 l 1,6,-1
 220 1488 l 1,7,-1
 259 1488 l 2,8,9
 392 1488 392 1488 442 1394 c 0,10,11
 458 1364 458 1364 459 1324 c 2,12,-1
 459 700 l 1,13,-1
 458 470 l 1,14,-1
 458 435 l 2,0,1
308 1324 m 2,15,16
 308 1350 308 1350 289.5 1361.5 c 128,-1,17
 271 1373 271 1373 220 1373 c 1,18,-1
 220 384 l 1,19,20
 272 384 272 384 290 395 c 128,-1,21
 308 406 308 406 308 431 c 2,22,-1
 308 1324 l 2,15,16
EndSplineSet
EndChar

StartChar: afii61352
Encoding: 8470 8470 89
Width: 1089
Flags: W
HStem: -24 115<778.032 861.133> 0 21G<64 220 333.968 493> 1686 110<786.262 861.524> 2028 20G<64 220.151 346 493>
VStem: 64 156<0 1142 1931.49 2048> 346 147<0 129.934 858 2048> 617 161<91.3018 1674.14> 868 161<101.829 1674.14>
LayerCount: 2
Fore
SplineSet
493 0 m 1,0,-1
 336 0 l 1,1,-1
 220 1142 l 1,2,-1
 220 0 l 1,3,-1
 64 0 l 1,4,-1
 64 2048 l 1,5,-1
 218 2048 l 1,6,-1
 346 858 l 1,7,-1
 346 2048 l 1,8,-1
 493 2048 l 1,9,-1
 493 0 l 1,0,-1
1029 151 m 2,10,11
 1029 81 1029 81 967 28 c 0,12,13
 906 -24 906 -24 826 -24 c 1,14,15
 742 -24 742 -24 680 28 c 0,16,17
 618 82 618 82 617 157 c 2,18,-1
 617 1617 l 2,19,20
 618 1690 618 1690 680 1744 c 0,21,22
 741 1796 741 1796 826 1796 c 0,23,24
 908 1796 908 1796 967 1746 c 0,25,26
 1029 1694 1029 1694 1029 1620 c 2,27,-1
 1029 151 l 2,10,11
868 1645 m 2,28,29
 868 1663 868 1663 855.5 1674.5 c 128,-1,30
 843 1686 843 1686 824.5 1686 c 128,-1,31
 806 1686 806 1686 792 1674.5 c 128,-1,32
 778 1663 778 1663 778 1645 c 2,33,-1
 778 127 l 2,34,35
 778 118 778 118 790 104.5 c 128,-1,36
 802 91 802 91 822.5 91 c 128,-1,37
 843 91 843 91 855.5 101.5 c 128,-1,38
 868 112 868 112 868 127 c 2,39,-1
 868 1645 l 2,28,29
EndSplineSet
EndChar

StartChar: ae
Encoding: 230 230 93
Width: 685
Flags: W
HStem: 0 118<468 661> 386 121<230 328> 874 124<468 612> 1653 115<468 661>
VStem: 329 139<118 386 507 874 998 1464>
LayerCount: 2
Fore
SplineSet
661 1653 m 1,0,-1
 468 1653 l 1,1,-1
 468 998 l 1,2,-1
 612 998 l 1,3,-1
 612 874 l 1,4,-1
 468 874 l 1,5,-1
 468 118 l 1,6,-1
 661 118 l 1,7,-1
 661 0 l 1,8,-1
 326 0 l 1,9,-1
 329 386 l 1,10,-1
 214 386 l 1,11,-1
 162 0 l 1,12,-1
 13 0 l 1,13,-1
 256 1768 l 1,14,-1
 661 1768 l 1,15,-1
 661 1653 l 1,0,-1
328 507 m 1,16,-1
 336 1464 l 1,17,-1
 230 507 l 1,18,-1
 328 507 l 1,16,-1
EndSplineSet
EndChar

StartChar: Lslash
Encoding: 321 321 95
Width: 403
Flags: W
HStem: 0 129<239 407> 2028 20G<84 239>
VStem: 84 323<0 129 1028 1058> 84 155<129 892 1058 2048>
LayerCount: 2
Fore
SplineSet
239 2048 m 1,0,-1
 239 1058 l 1,1,-1
 407 1092 l 1,2,-1
 407 956 l 1,3,-1
 239 923 l 1,4,-1
 239 129 l 1,5,-1
 407 129 l 1,6,-1
 407 0 l 1,7,-1
 84 0 l 1,8,-1
 84 892 l 1,9,-1
 -17 872 l 1,10,-1
 -17 1008 l 1,11,-1
 84 1028 l 1,12,-1
 84 2048 l 1,13,-1
 239 2048 l 1,0,-1
EndSplineSet
EndChar

StartChar: lslash
Encoding: 322 322 96
Width: 364
Flags: W
HStem: 0 118<216 363> 1748 20G<64 216> 1748 20G<64 216>
VStem: 64 299<0 118 934 967> 64 152<118 798 967 1768>
LayerCount: 2
Fore
SplineSet
216 1768 m 1,0,-1
 216 967 l 1,1,-1
 363 1001 l 1,2,-1
 363 865 l 1,3,-1
 216 832 l 1,4,-1
 216 118 l 1,5,-1
 363 118 l 1,6,-1
 363 0 l 1,7,-1
 64 0 l 1,8,-1
 64 798 l 1,9,-1
 -11 781 l 1,10,-1
 -11 917 l 1,11,-1
 64 934 l 1,12,-1
 64 1768 l 1,13,-1
 216 1768 l 1,0,-1
EndSplineSet
EndChar

StartChar: onequarter
Encoding: 188 188 105
Width: 1305
Flags: W
HStem: 0 21G<484 642.148 1100 1256> 423 134<38 186 344 475 962 1100> 1911 136<38 186>
VStem: 186 158<557 1911> 1100 156<0 417 546 925>
LayerCount: 2
Fore
SplineSet
1256 925 m 1,0,-1
 1256 0 l 1,1,-1
 1100 0 l 1,2,-1
 1100 417 l 1,3,-1
 802 417 l 1,4,-1
 970 1625 l 1,5,-1
 1124 1625 l 1,6,-1
 962 546 l 1,7,-1
 1100 546 l 1,8,-1
 1100 925 l 1,9,-1
 1256 925 l 1,0,-1
860 2048 m 1,10,-1
 640 0 l 1,11,-1
 484 0 l 1,12,-1
 704 2048 l 1,13,-1
 860 2048 l 1,10,-1
38 557 m 1,14,-1
 186 557 l 1,15,-1
 186 1911 l 1,16,-1
 38 1911 l 1,17,-1
 38 2047 l 1,18,-1
 344 2047 l 1,19,-1
 344 557 l 1,20,-1
 475 557 l 1,21,-1
 475 423 l 1,22,-1
 38 423 l 1,23,-1
 38 557 l 1,14,-1
EndSplineSet
EndChar

StartChar: uni00B9
Encoding: 185 185 106
Width: 468
Flags: W
HStem: 0 134<15 164 322 452> 1488 136<15 164>
VStem: 164 158<134 1488>
LayerCount: 2
Fore
SplineSet
15 134 m 1,0,-1
 164 134 l 1,1,-1
 164 1488 l 1,2,-1
 15 1488 l 1,3,-1
 15 1624 l 1,4,-1
 322 1624 l 1,5,-1
 322 134 l 1,6,-1
 452 134 l 1,7,-1
 452 0 l 1,8,-1
 15 0 l 1,9,-1
 15 134 l 1,0,-1
EndSplineSet
EndChar

StartChar: threequarters
Encoding: 190 190 107
Width: 1264
Flags: W
HStem: 0 21G<462 619.148 1057 1212> 356 117<197.108 279.765> 417 129<918 1057> 1239 120<158 273.292> 1931 117<196.65 278.774>
VStem: 45 151<473.333 979 1565 1930.64> 280 155<473.582 1239 1372.41 1899.56> 1057 155<0 417 546 925>
LayerCount: 2
Fore
SplineSet
237 1931 m 0,0,1
 196 1931 196 1931 196 1873 c 2,2,-1
 196 1565 l 1,3,-1
 45 1565 l 1,4,-1
 45 1898 l 2,5,6
 46 1958 46 1958 104 2004 c 0,7,8
 160 2048 160 2048 218.5 2048 c 128,-1,9
 277 2048 277 2048 313 2036.5 c 0,10,11
 349 2024 349 2024 376 2004 c 0,12,13
 435 1959 435 1959 435 1896 c 2,14,-1
 435 1392 l 2,15,16
 435 1330 435 1330 393 1299 c 1,17,18
 413 1291 413 1291 424 1263 c 128,-1,19
 435 1235 435 1235 435 1207 c 2,20,-1
 435 508 l 2,21,22
 435 444 435 444 376 400 c 0,23,24
 319 356 319 356 237 356 c 0,25,26
 160 356 160 356 104 399 c 0,27,28
 46 443 46 443 45 505 c 2,29,-1
 45 979 l 1,30,-1
 196 979 l 1,31,-1
 196 531 l 2,32,33
 196 473 196 473 237 473 c 0,34,35
 281 473 281 473 281 526 c 2,36,-1
 280 557 l 1,37,-1
 280 1184 l 2,38,39
 280 1207 280 1207 273.5 1223 c 128,-1,40
 267 1239 267 1239 239 1239 c 2,41,-1
 158 1239 l 1,42,-1
 158 1359 l 1,43,-1
 239 1359 l 2,44,45
 267 1359 267 1359 273.5 1372 c 128,-1,46
 280 1385 280 1385 280 1407 c 2,47,-1
 280 1844 l 2,48,49
 280 1856 280 1856 281 1871 c 128,-1,50
 282 1886 282 1886 279 1900 c 0,51,52
 272 1932 272 1932 237 1931 c 0,0,1
1212 925 m 1,53,-1
 1212 0 l 1,54,-1
 1057 0 l 1,55,-1
 1057 417 l 1,56,-1
 759 417 l 1,57,-1
 927 1625 l 1,58,-1
 1081 1625 l 1,59,-1
 918 546 l 1,60,-1
 1057 546 l 1,61,-1
 1057 925 l 1,62,-1
 1212 925 l 1,53,-1
837 2048 m 1,63,-1
 617 0 l 1,64,-1
 462 0 l 1,65,-1
 682 2048 l 1,66,-1
 837 2048 l 1,63,-1
EndSplineSet
EndChar

StartChar: uni00B3
Encoding: 179 179 108
Width: 511
Flags: W
HStem: -36 117<212.498 294.8> 847 120<174 288.807> 1539 117<212.285 293.774>
VStem: 60 151<81.3325 587 1173 1537.67> 295 156<81.582 830.498 980.408 1507.56>
LayerCount: 2
Fore
SplineSet
252 1539 m 0,0,1
 211 1539 211 1539 211 1481 c 2,2,-1
 211 1173 l 1,3,-1
 60 1173 l 1,4,-1
 60 1506 l 2,5,6
 60 1568 60 1568 119 1612 c 0,7,8
 176 1656 176 1656 234 1656 c 128,-1,9
 292 1656 292 1656 328 1644.5 c 0,10,11
 364 1632 364 1632 392 1612 c 0,12,13
 452 1568 452 1568 451 1504 c 2,14,-1
 451 1000 l 2,15,16
 451 945 451 945 409 907 c 1,17,18
 421 902 421 902 429 890 c 0,19,20
 451 858 451 858 451 815 c 2,21,-1
 451 116 l 2,22,23
 452 52 452 52 392 8 c 0,24,25
 334 -36 334 -36 252 -36 c 1,26,27
 177 -36 177 -36 119 7 c 0,28,29
 60 51 60 51 60 113 c 2,30,-1
 60 587 l 1,31,-1
 211 587 l 1,32,-1
 211 139 l 2,33,34
 211 81 211 81 252 81 c 0,35,36
 296 81 296 81 296 134 c 2,37,-1
 295 165 l 1,38,-1
 295 792 l 2,39,40
 295 815 295 815 289 831 c 128,-1,41
 283 847 283 847 255 847 c 2,42,-1
 174 847 l 1,43,-1
 174 967 l 1,44,-1
 255 967 l 2,45,46
 283 967 283 967 289 980 c 128,-1,47
 295 993 295 993 295 1015 c 2,48,-1
 295 1452 l 2,49,50
 295 1464 295 1464 296 1479 c 128,-1,51
 297 1494 297 1494 294 1508 c 0,52,53
 287 1540 287 1540 252 1539 c 0,0,1
EndSplineSet
EndChar

StartChar: uni00B2
Encoding: 178 178 109
Width: 539
Flags: W
HStem: 0 141<232 486> 1518 137<225.015 323.652>
VStem: 60 156<1078 1504.59> 333 153<1386.09 1500.62>
LayerCount: 2
Fore
SplineSet
60 1485 m 2,0,1
 60 1557 60 1557 119 1605 c 0,2,3
 180 1655 180 1655 272 1655 c 0,4,5
 370 1655 370 1655 434 1596 c 0,6,7
 488 1546 488 1546 489 1478 c 0,8,9
 489 1462 489 1462 486 1445 c 1,10,-1
 293 442 l 1,11,-1
 232 141 l 1,12,-1
 486 141 l 1,13,-1
 486 0 l 1,14,-1
 62 0 l 1,15,16
 234 858 234 858 330 1438 c 1,17,18
 333 1452 333 1452 333 1463 c 0,19,20
 332 1489 332 1489 318 1501 c 0,21,22
 298 1518 298 1518 273 1518 c 128,-1,23
 248 1518 248 1518 232 1505 c 128,-1,24
 216 1492 216 1492 216 1473 c 2,25,-1
 216 1078 l 1,26,-1
 60 1078 l 1,27,-1
 60 1485 l 2,0,1
EndSplineSet
EndChar

StartChar: brokenbar
Encoding: 166 166 110
Width: 295
Flags: W
HStem: 0 21G<70 225> 2028 20G<70 225>
VStem: 70 155<0 937 1033 2048>
LayerCount: 2
Fore
SplineSet
225 937 m 1,0,-1
 225 0 l 1,1,-1
 70 0 l 1,2,-1
 70 937 l 1,3,-1
 225 937 l 1,0,-1
225 2048 m 1,4,-1
 225 1033 l 1,5,-1
 70 1033 l 1,6,-1
 70 2048 l 1,7,-1
 225 2048 l 1,4,-1
EndSplineSet
EndChar

StartChar: minus
Encoding: 8722 8722 111
Width: 567
Flags: W
HStem: 872 157<48 518>
VStem: 48 470<872 1029>
LayerCount: 2
Fore
SplineSet
518 872 m 1,0,-1
 48 872 l 1,1,-1
 48 1029 l 1,2,-1
 518 1029 l 1,3,-1
 518 872 l 1,0,-1
EndSplineSet
EndChar

StartChar: multiply
Encoding: 215 215 112
Width: 463
Flags: W
VStem: 24 155<228 291.669 1384.86 1450> 290 150<1382.37 1450>
LayerCount: 2
Fore
SplineSet
440 228 m 1,0,-1
 290 228 l 1,1,-1
 232 533 l 1,2,-1
 179 228 l 1,3,-1
 24 228 l 1,4,-1
 160 832 l 1,5,-1
 24 1450 l 1,6,-1
 179 1450 l 1,7,-1
 232 1128 l 1,8,-1
 290 1450 l 1,9,-1
 440 1450 l 1,10,-1
 309 832 l 1,11,-1
 440 228 l 1,0,-1
EndSplineSet
EndChar

StartChar: quotedbl
Encoding: 34 34 115
Width: 564
Flags: W
HStem: 1630 418<99 197 353 452>
VStem: 99 98<1630 1747.5> 353 99<1630 1752.29>
LayerCount: 2
Fore
SplineSet
501 2048 m 1,0,-1
 452 1630 l 1,1,-1
 353 1630 l 1,2,-1
 316 2048 l 1,3,-1
 501 2048 l 1,0,-1
248 2048 m 1,4,-1
 197 1630 l 1,5,-1
 99 1630 l 1,6,-1
 63 2048 l 1,7,-1
 248 2048 l 1,4,-1
EndSplineSet
EndChar

StartChar: numbersign
Encoding: 35 35 116
Width: 634
Flags: W
HStem: 0 21G<41 197.509 267 424.509> 848 122<10 106 270 333 497 606> 1159 122<27 129 294 356 521 623> 2028 20G<188.67 346 415.618 573>
VStem: 0 634
LayerCount: 2
Fore
SplineSet
623 1159 m 1,0,-1
 511 1159 l 1,1,-1
 497 970 l 1,2,-1
 617 970 l 1,3,-1
 606 848 l 1,4,-1
 487 848 l 1,5,-1
 423 0 l 1,6,-1
 267 0 l 1,7,-1
 333 848 l 1,8,-1
 260 848 l 1,9,-1
 196 0 l 1,10,-1
 41 0 l 1,11,-1
 106 848 l 1,12,-1
 0 848 l 1,13,-1
 10 970 l 1,14,-1
 115 970 l 1,15,-1
 129 1159 l 1,16,-1
 15 1159 l 1,17,-1
 27 1282 l 1,18,-1
 139 1281 l 1,19,-1
 190 2048 l 1,20,-1
 346 2048 l 1,21,-1
 294 1281 l 1,22,-1
 364 1281 l 1,23,-1
 417 2048 l 1,24,-1
 573 2048 l 1,25,-1
 521 1281 l 1,26,-1
 634 1281 l 1,27,-1
 623 1159 l 1,0,-1
270 970 m 1,28,-1
 342 970 l 1,29,-1
 356 1159 l 1,30,-1
 284 1159 l 1,31,-1
 270 970 l 1,28,-1
EndSplineSet
EndChar

StartChar: dollar
Encoding: 36 36 117
Width: 536
Flags: W
VStem: 60 157<126.033 857 1284.29 1934.44> 213 122<-279 -0.507812 2048.75 2327> 316 159<138.409 869.739 1288 1922.59>
LayerCount: 2
Fore
SplineSet
475 179 m 2,0,1
 475 22 475 22 335 -15 c 1,2,-1
 335 -279 l 1,3,-1
 213 -279 l 1,4,-1
 213 -15 l 1,5,6
 106 12 106 12 72 102 c 0,7,8
 60 134 60 134 60 174 c 2,9,-1
 60 857 l 1,10,-1
 217 857 l 1,11,-1
 217 174 l 2,12,13
 217 125 217 125 270 125 c 0,14,15
 290 125 290 125 303 138 c 128,-1,16
 316 151 316 151 316 174 c 2,17,-1
 316 489 l 2,18,19
 316 800 316 800 235 970 c 0,20,21
 212 1018 212 1018 188 1062 c 2,22,-1
 141 1150 l 1,23,24
 60 1303 60 1303 60 1547 c 2,25,-1
 60 1889 l 2,26,27
 60 1960 60 1960 103 2002.5 c 128,-1,28
 146 2045 146 2045 213 2064 c 1,29,-1
 213 2327 l 1,30,-1
 335 2327 l 1,31,-1
 335 2061 l 1,32,33
 475 2017 475 2017 475 1893 c 2,34,-1
 475 1288 l 1,35,-1
 316 1288 l 1,36,-1
 316 1891 l 2,37,38
 316 1910 316 1910 303 1923 c 128,-1,39
 290 1936 290 1936 269 1936 c 128,-1,40
 248 1936 248 1936 232.5 1922 c 128,-1,41
 217 1908 217 1908 217 1889 c 2,42,-1
 217 1600 l 2,43,44
 216 1352 216 1352 298 1194 c 1,45,-1
 394 1020 l 2,46,47
 476 869 476 869 475 640 c 2,48,-1
 475 179 l 2,0,1
EndSplineSet
EndChar

StartChar: percent
Encoding: 37 37 118
Width: 1261
Flags: W
HStem: 0 21G<440 597.148> 246 115<953.841 1037.09> 806 115<216.341 299.336> 1126 110<953.841 1037.48> 1686 110<216.341 299.727> 2028 20G<656.861 815>
VStem: 56 160<922.847 1685.25> 307 161<931.829 1674.14> 794 159<362.847 1125.25> 1044 161<371.829 1114.14>
LayerCount: 2
Fore
SplineSet
1205 421 m 2,0,1
 1205 350 1205 350 1144 298 c 128,-1,2
 1083 246 1083 246 1001 246 c 0,3,4
 915 246 915 246 855 298 c 0,5,6
 794 351 794 351 794 427 c 2,7,-1
 794 1057 l 2,8,9
 794 1130 794 1130 855 1184 c 0,10,11
 915 1236 915 1236 1001 1236 c 0,12,13
 1085 1236 1085 1236 1144 1186 c 0,14,15
 1205 1135 1205 1135 1205 1060 c 2,16,-1
 1205 421 l 2,0,1
1044 1085 m 2,17,18
 1044 1103 1044 1103 1031.5 1114.5 c 128,-1,19
 1019 1126 1019 1126 1001 1126 c 256,20,21
 983 1126 983 1126 968 1114.5 c 128,-1,22
 953 1103 953 1103 953 1085 c 2,23,-1
 953 398 l 2,24,25
 953 388 953 388 965 374.5 c 128,-1,26
 977 361 977 361 998 361 c 128,-1,27
 1019 361 1019 361 1031.5 371.5 c 128,-1,28
 1044 382 1044 382 1044 398 c 2,29,-1
 1044 1085 l 2,17,18
468 981 m 2,30,31
 468 911 468 911 406 858 c 0,32,33
 345 806 345 806 263 806 c 0,34,35
 177 806 177 806 117 858 c 0,36,37
 56 911 56 911 56 987 c 2,38,-1
 56 1617 l 2,39,40
 56 1690 56 1690 117 1744 c 0,41,42
 177 1796 177 1796 263 1796 c 0,43,44
 347 1796 347 1796 406 1746 c 0,45,46
 468 1694 468 1694 468 1620 c 2,47,-1
 468 981 l 2,30,31
307 1645 m 2,48,49
 307 1663 307 1663 294 1674.5 c 128,-1,50
 281 1686 281 1686 263 1686 c 256,51,52
 245 1686 245 1686 230.5 1674.5 c 128,-1,53
 216 1663 216 1663 216 1645 c 2,54,-1
 216 958 l 2,55,56
 216 948 216 948 227.5 934.5 c 128,-1,57
 239 921 239 921 260 921 c 128,-1,58
 281 921 281 921 294 931.5 c 128,-1,59
 307 942 307 942 307 958 c 2,60,-1
 307 1645 l 2,48,49
815 2048 m 1,61,-1
 595 0 l 1,62,-1
 440 0 l 1,63,-1
 659 2048 l 1,64,-1
 815 2048 l 1,61,-1
EndSplineSet
EndChar

StartChar: quotesingle
Encoding: 39 39 119
Width: 318
Flags: W
HStem: 1630 418<102 202>
VStem: 102 100<1630 1752.29>
LayerCount: 2
Fore
SplineSet
251 2048 m 1,0,-1
 202 1630 l 1,1,-1
 102 1630 l 1,2,-1
 66 2048 l 1,3,-1
 251 2048 l 1,0,-1
EndSplineSet
EndChar

StartChar: parenleft
Encoding: 40 40 120
Width: 459
Flags: W
HStem: -127 134<345.649 413> 2044 137<343.922 413>
VStem: 84 156<381.238 1524.5>
LayerCount: 2
Fore
SplineSet
84 1033 m 256,0,1
 84 1522 84 1522 126 1758 c 0,2,3
 200 2182 200 2182 413 2181 c 1,4,-1
 413 2044 l 1,5,6
 247 2044 247 2044 240 1240 c 0,7,8
 239 1128 239 1128 239 1033.5 c 128,-1,9
 239 939 239 939 240 826 c 128,-1,10
 241 713 241 713 246 599 c 128,-1,11
 251 485 251 485 262 378.5 c 0,12,13
 272 272 272 272 292 190 c 0,14,15
 335 8 335 8 413 7 c 1,16,-1
 413 -127 l 1,17,18
 298 -126 298 -126 222 -2 c 0,19,20
 88 218 88 218 84 867 c 0,21,22
 84 957 84 957 84 1033 c 256,0,1
EndSplineSet
EndChar

StartChar: asterisk
Encoding: 42 42 122
Width: 693
Flags: W
HStem: 1698 112<28 248 447 665> 2042 20G<195.965 242.062 452.835 499.386>
VStem: 28 637<1698 1810>
LayerCount: 2
Fore
SplineSet
465 1449 m 1,0,-1
 347 1641 l 1,1,-1
 231 1449 l 1,2,-1
 133 1506 l 1,3,-1
 248 1698 l 1,4,-1
 28 1698 l 1,5,-1
 28 1810 l 1,6,-1
 249 1810 l 1,7,-1
 133 2005 l 1,8,-1
 230 2062 l 1,9,-1
 347 1868 l 1,10,-1
 465 2062 l 1,11,-1
 563 2005 l 1,12,-1
 445 1812 l 1,13,-1
 665 1813 l 1,14,-1
 665 1698 l 1,15,-1
 447 1698 l 1,16,-1
 563 1506 l 1,17,-1
 465 1449 l 1,0,-1
EndSplineSet
EndChar

StartChar: plus
Encoding: 43 43 123
Width: 778
Flags: W
HStem: 876 153<34 312 468 743>
VStem: 312 156<577 876 1029 1327>
LayerCount: 2
Fore
SplineSet
34 1029 m 1,0,-1
 312 1029 l 1,1,-1
 312 1327 l 1,2,-1
 468 1327 l 1,3,-1
 468 1029 l 1,4,-1
 743 1029 l 1,5,-1
 743 876 l 1,6,-1
 468 876 l 1,7,-1
 468 577 l 1,8,-1
 312 577 l 1,9,-1
 312 876 l 1,10,-1
 34 876 l 1,11,-1
 34 1029 l 1,0,-1
EndSplineSet
EndChar

StartChar: comma
Encoding: 44 44 124
Width: 297
Flags: W
HStem: -206 420<43 189>
VStem: 43 213<124.133 214> 43 146<-206 -116.133>
LayerCount: 2
Fore
SplineSet
256 214 m 1,0,-1
 189 -206 l 1,1,-1
 43 -206 l 1,2,-1
 43 214 l 1,3,-1
 256 214 l 1,0,-1
EndSplineSet
EndChar

StartChar: hyphen
Encoding: 45 45 125
Width: 804
Flags: W
HStem: 872 157<27 777>
LayerCount: 2
Fore
SplineSet
777 872 m 1,0,-1
 27 872 l 1,1,-1
 27 1029 l 1,2,-1
 777 1029 l 1,3,-1
 777 872 l 1,0,-1
EndSplineSet
EndChar

StartChar: period
Encoding: 46 46 126
Width: 297
Flags: W
HStem: 0 214<45 258>
VStem: 45 213<0 214>
LayerCount: 2
Fore
SplineSet
258 214 m 1,0,-1
 258 0 l 1,1,-1
 45 0 l 1,2,-1
 45 214 l 1,3,-1
 258 214 l 1,0,-1
EndSplineSet
EndChar

StartChar: slash
Encoding: 47 47 127
Width: 403
Flags: W
HStem: 0 21G<14 171.148> 2028 20G<231.852 389>
VStem: 14 375
LayerCount: 2
Fore
SplineSet
389 2048 m 1,0,-1
 169 0 l 1,1,-1
 14 0 l 1,2,-1
 234 2048 l 1,3,-1
 389 2048 l 1,0,-1
EndSplineSet
EndChar

StartChar: two
Encoding: 50 50 128
Width: 486
Flags: W
HStem: 0 141<210 463> 1938 137<202.278 307.372>
VStem: 38 155<1498 1924.59> 309 154<1780.94 1935.8>
LayerCount: 2
Fore
SplineSet
38 1905 m 2,0,1
 38 1977 38 1977 97 2025 c 0,2,3
 158 2075 158 2075 249 2075 c 0,4,5
 347 2074 347 2074 411 2016 c 0,6,7
 465 1966 465 1966 465 1896 c 0,8,9
 465 1881 465 1881 463 1865 c 2,10,-1
 210 141 l 1,11,-1
 463 141 l 1,12,-1
 463 0 l 1,13,-1
 39 0 l 1,14,-1
 308 1858 l 1,15,16
 309 1868 309 1868 309 1877 c 0,17,18
 309 1938 309 1938 249 1938 c 0,19,20
 225 1938 225 1938 209 1925 c 128,-1,21
 193 1912 193 1912 193 1893 c 2,22,-1
 193 1498 l 1,23,-1
 38 1498 l 1,24,-1
 38 1905 l 2,0,1
EndSplineSet
EndChar

StartChar: three
Encoding: 51 51 129
Width: 498
Flags: W
HStem: -36 117<211.108 293.765> 987 120<172 288.323> 1959 117<210.65 292.774>
VStem: 59 151<81.3325 727 1313 1958.64> 294 155<81.582 970.498 1120.41 1927.56>
LayerCount: 2
Fore
SplineSet
251 1959 m 0,0,1
 210 1959 210 1959 210 1901 c 2,2,-1
 210 1313 l 1,3,-1
 59 1313 l 1,4,-1
 59 1926 l 2,5,6
 60 1986 60 1986 118 2032 c 0,7,8
 174 2076 174 2076 232.5 2076 c 128,-1,9
 291 2076 291 2076 327 2064.5 c 0,10,11
 363 2052 363 2052 390 2032 c 0,12,13
 449 1987 449 1987 449 1924 c 2,14,-1
 449 1140 l 2,15,16
 449 1078 449 1078 407 1047 c 1,17,18
 427 1039 427 1039 438 1011 c 128,-1,19
 449 983 449 983 449 955 c 2,20,-1
 449 116 l 2,21,22
 449 52 449 52 390 8 c 0,23,24
 333 -36 333 -36 251 -36 c 1,25,26
 174 -36 174 -36 118 7 c 0,27,28
 60 51 60 51 59 113 c 2,29,-1
 59 727 l 1,30,-1
 210 727 l 1,31,-1
 210 139 l 2,32,33
 210 81 210 81 251 81 c 0,34,35
 295 81 295 81 295 134 c 2,36,-1
 294 165 l 1,37,-1
 294 932 l 2,38,39
 294 955 294 955 288.5 971 c 128,-1,40
 283 987 283 987 255 987 c 2,41,-1
 172 987 l 1,42,-1
 172 1107 l 1,43,-1
 255 1107 l 2,44,45
 283 1107 283 1107 288.5 1120 c 128,-1,46
 294 1133 294 1133 294 1155 c 2,47,-1
 294 1872 l 2,48,49
 294 1884 294 1884 295 1899 c 128,-1,50
 296 1914 296 1914 293 1928 c 0,51,52
 286 1960 286 1960 251 1959 c 0,0,1
EndSplineSet
EndChar

StartChar: four
Encoding: 52 52 130
Width: 518
Flags: W
HStem: 0 21G<304 459> 417 129<165 304>
VStem: 304 155<0 417 546 1345>
LayerCount: 2
Fore
SplineSet
459 1345 m 1,0,-1
 459 0 l 1,1,-1
 304 0 l 1,2,-1
 304 417 l 1,3,-1
 6 417 l 1,4,-1
 174 2045 l 1,5,-1
 328 2045 l 1,6,-1
 165 546 l 1,7,-1
 304 546 l 1,8,-1
 304 1345 l 1,9,-1
 459 1345 l 1,0,-1
EndSplineSet
EndChar

StartChar: five
Encoding: 53 53 131
Width: 524
Flags: W
HStem: -24 126<218.511 316.412> 1082 118<221.117 406> 1933 117<218 476>
VStem: 62 155<102.742 886 1000 1081.02 1151 1933> 318 158<105.411 1079.73>
LayerCount: 2
Fore
SplineSet
272 102 m 0,0,1
 318 102 318 102 318 164 c 2,2,-1
 318 1001 l 2,3,4
 318 1072 318 1072 292 1080 c 0,5,6
 284 1082 284 1082 273 1082 c 0,7,8
 217 1082 217 1082 217 1000 c 1,9,-1
 62 1000 l 1,10,-1
 62 2050 l 1,11,-1
 476 2048 l 1,12,-1
 476 1933 l 1,13,-1
 218 1933 l 1,14,-1
 217 1151 l 1,15,16
 262 1200 262 1200 336 1200 c 0,17,18
 476 1200 476 1200 476 997 c 2,19,-1
 476 189 l 2,20,21
 476 31 476 31 353 -11 c 0,22,23
 315 -24 315 -24 270.5 -24 c 128,-1,24
 226 -24 226 -24 188 -11 c 128,-1,25
 150 2 150 2 122 29 c 0,26,27
 62 87 62 87 62 197 c 2,28,-1
 62 886 l 1,29,-1
 217 886 l 1,30,-1
 217 164 l 2,31,32
 217 102 217 102 272 102 c 0,0,1
EndSplineSet
EndChar

StartChar: seven
Encoding: 55 55 132
Width: 402
Flags: W
HStem: -1 21G<63 219.66> 1918 129<63 231>
VStem: 63 325<1789 1918>
LayerCount: 2
Fore
SplineSet
63 -1 m 1,0,-1
 231 1918 l 1,1,-1
 63 1918 l 1,2,-1
 63 2047 l 1,3,-1
 388 2047 l 1,4,-1
 218 -1 l 1,5,-1
 63 -1 l 1,0,-1
EndSplineSet
EndChar

StartChar: colon
Encoding: 58 58 133
Width: 316
Flags: W
HStem: 343 214<48 260> 1110 216<48 260>
VStem: 48 212<343 557 1110 1326>
LayerCount: 2
Fore
SplineSet
260 1326 m 1,0,-1
 260 1110 l 1,1,-1
 48 1110 l 1,2,-1
 48 1326 l 1,3,-1
 260 1326 l 1,0,-1
260 557 m 1,4,-1
 260 343 l 1,5,-1
 48 343 l 1,6,-1
 48 557 l 1,7,-1
 260 557 l 1,4,-1
EndSplineSet
EndChar

StartChar: semicolon
Encoding: 59 59 134
Width: 316
Flags: W
HStem: 1110 216<59 270>
VStem: 57 213<435.133 525 1110 1326> 57 146<105 194.867>
LayerCount: 2
Fore
SplineSet
270 1326 m 1,0,-1
 270 1110 l 1,1,-1
 59 1110 l 1,2,-1
 59 1326 l 1,3,-1
 270 1326 l 1,0,-1
270 525 m 1,4,-1
 203 105 l 1,5,-1
 57 105 l 1,6,-1
 57 525 l 1,7,-1
 270 525 l 1,4,-1
EndSplineSet
EndChar

StartChar: equal
Encoding: 61 61 136
Width: 804
Flags: W
HStem: 617 156<27 777> 872 157<27 777>
LayerCount: 2
Fore
SplineSet
777 617 m 1,0,-1
 27 617 l 1,1,-1
 27 773 l 1,2,-1
 777 773 l 1,3,-1
 777 617 l 1,0,-1
777 872 m 1,4,-1
 27 872 l 1,5,-1
 27 1029 l 1,6,-1
 777 1029 l 1,7,-1
 777 872 l 1,4,-1
EndSplineSet
EndChar

StartChar: greater
Encoding: 62 62 137
Width: 431
Flags: W
HStem: 0 21G<36 42.4573> 2028 20G<36 42.3946>
VStem: 36 329
LayerCount: 2
Fore
SplineSet
365 1019 m 1,0,-1
 36 0 l 1,1,-1
 36 455 l 1,2,-1
 207 1019 l 1,3,-1
 36 1620 l 1,4,-1
 36 2048 l 1,5,-1
 365 1019 l 1,0,-1
EndSplineSet
EndChar

StartChar: question
Encoding: 63 63 138
Width: 504
Flags: W
HStem: 0 175<150 307> 1936 136<216.196 308.699>
VStem: 50 159<1288 1922.59> 148 159<0 175 293 966.25> 309 156<1212.41 1933.73>
LayerCount: 2
Fore
SplineSet
307 293 m 1,0,-1
 148 293 l 1,1,-1
 148 622 l 2,2,3
 148 854 148 854 199 1008 c 2,4,-1
 229 1097 l 258,5,6
 287 1267 287 1267 298 1384.5 c 128,-1,7
 309 1502 309 1502 309 1600 c 2,8,-1
 309 1889 l 2,9,10
 309 1908 309 1908 293 1922 c 128,-1,11
 277 1936 277 1936 256 1936 c 128,-1,12
 235 1936 235 1936 222 1923 c 128,-1,13
 209 1910 209 1910 209 1891 c 2,14,-1
 209 1288 l 1,15,-1
 50 1288 l 1,16,-1
 50 1893 l 2,17,18
 50 1965 50 1965 107 2018 c 0,19,20
 165 2072 165 2072 256 2072 c 256,21,22
 344 2072 344 2072 406 2017 c 0,23,24
 465 1964 465 1964 465 1889 c 2,25,-1
 465 1547 l 2,26,27
 465 1322 465 1322 415 1172 c 1,28,-1
 386 1087 l 1,29,30
 307 861 307 861 307 511 c 2,31,-1
 307 293 l 1,0,-1
307 175 m 1,32,-1
 307 0 l 1,33,-1
 150 0 l 1,34,-1
 150 175 l 1,35,-1
 307 175 l 1,32,-1
EndSplineSet
EndChar

StartChar: at
Encoding: 64 64 139
Width: 1131
Flags: W
HStem: -233 152<489.062 864> 73 115<514.95 597.499 780.333 885.159> 1684 129<521.818 597.789> 1928 141<388.767 752.017>
VStem: 85 157<133.375 1791.6> 354 160<189.548 1681.93> 605 164<244.862 1681.93> 893 151<189.469 1791.2>
LayerCount: 2
Fore
SplineSet
769 371 m 2,0,1
 768 271 768 271 776 244 c 0,2,3
 792 188 792 188 850 188 c 0,4,5
 890 188 890 188 892 293 c 0,6,7
 892 327 892 327 893 371 c 2,8,-1
 893 1620 l 2,9,10
 893 1793 893 1793 770 1872 c 1,11,12
 719 1906 719 1906 664 1917 c 128,-1,13
 609 1928 609 1928 583 1928 c 0,14,15
 421 1928 421 1928 322 1836 c 0,16,17
 242 1761 242 1761 242 1620 c 2,18,-1
 242 339 l 2,19,20
 242 147 242 147 353 43 c 0,21,22
 477 -73 477 -73 745 -81 c 0,23,24
 815 -83 815 -83 875 -83 c 1,25,-1
 864 -232 l 1,26,27
 831 -233 831 -233 800 -233 c 0,28,29
 255 -233 255 -233 120 131 c 0,30,31
 85 226 85 226 85 356 c 2,32,-1
 85 1602 l 2,33,34
 84 1820 84 1820 220 1946 c 0,35,36
 351 2068 351 2068 563 2069 c 0,37,38
 740 2069 740 2069 884 1967 c 0,39,40
 1046 1852 1046 1852 1045 1641 c 0,41,42
 1045 1624 1045 1624 1044 1607 c 1,43,-1
 1044 371 l 2,44,45
 1044 209 1044 209 1019.5 160.5 c 128,-1,46
 995 112 995 112 956.5 91.5 c 128,-1,47
 918 71 918 71 863 71 c 0,48,49
 778 71 778 71 735 132 c 1,50,51
 715 158 715 158 706 192 c 1,52,53
 696 154 696 154 680 132 c 0,54,55
 637 73 637 73 546 73 c 129,-1,56
 455 73 455 73 404 125 c 1,57,58
 354 178 354 178 354 253 c 2,59,-1
 354 1634 l 2,60,61
 354 1706 354 1706 415 1760 c 0,62,63
 475 1812 475 1812 561 1813 c 0,64,65
 644 1812 644 1812 704 1762 c 0,66,67
 766 1710 766 1710 766 1637 c 2,68,-1
 769 371 l 2,0,1
605 1662 m 2,69,70
 605 1680 605 1680 592.5 1682 c 128,-1,71
 580 1684 580 1684 561.5 1684 c 128,-1,72
 543 1684 543 1684 528.5 1682 c 128,-1,73
 514 1680 514 1680 514 1662 c 2,74,-1
 514 224 l 2,75,76
 514 214 514 214 526 201 c 128,-1,77
 538 188 538 188 559 188 c 128,-1,78
 580 188 580 188 592.5 198.5 c 128,-1,79
 605 209 605 209 605 224 c 2,80,-1
 605 1662 l 2,69,70
EndSplineSet
EndChar

StartChar: backslash
Encoding: 92 92 140
Width: 377
Flags: W
HStem: 0 21G<218.852 377> 2028 20G<1 159.148>
VStem: 1 376
LayerCount: 2
Fore
SplineSet
157 2048 m 1,0,-1
 377 0 l 1,1,-1
 221 0 l 1,2,-1
 1 2048 l 1,3,-1
 157 2048 l 1,0,-1
EndSplineSet
EndChar

StartChar: asciicircum
Encoding: 94 94 141
Width: 379
Flags: W
HStem: 899 403<105 154 225 274>
VStem: 36 307
LayerCount: 2
Fore
SplineSet
274 1302 m 1,0,-1
 343 899 l 1,1,-1
 225 899 l 1,2,-1
 189 1176 l 1,3,-1
 154 899 l 1,4,-1
 36 899 l 1,5,-1
 105 1302 l 1,6,-1
 274 1302 l 1,0,-1
EndSplineSet
EndChar

StartChar: underscore
Encoding: 95 95 142
Width: 776
Flags: W
HStem: -157 157<13 763>
LayerCount: 2
Fore
SplineSet
763 -157 m 1,0,-1
 13 -157 l 1,1,-1
 13 0 l 1,2,-1
 763 0 l 1,3,-1
 763 -157 l 1,0,-1
EndSplineSet
EndChar

StartChar: grave
Encoding: 96 96 143
Width: 379
Flags: W
HStem: 98 476
VStem: -18 338
LayerCount: 2
Fore
SplineSet
166 574 m 1,0,-1
 320 98 l 1,1,-1
 203 98 l 1,2,-1
 -18 574 l 1,3,-1
 166 574 l 1,0,-1
EndSplineSet
EndChar

StartChar: braceleft
Encoding: 123 123 144
Width: 405
Flags: W
HStem: -127 134<220 393> 2044 137<220 393>
VStem: 64 329<-127 7 2044 2181> 64 156<7 2044>
LayerCount: 2
Fore
SplineSet
393 2181 m 1,0,-1
 393 2044 l 1,1,-1
 220 2044 l 1,2,-1
 220 7 l 1,3,-1
 393 7 l 1,4,-1
 393 -127 l 1,5,-1
 64 -127 l 1,6,-1
 64 2181 l 1,7,-1
 393 2181 l 1,0,-1
EndSplineSet
EndChar

StartChar: bar
Encoding: 124 124 145
Width: 287
Flags: W
VStem: 67 156<-140 2188>
LayerCount: 2
Fore
SplineSet
223 2188 m 1,0,-1
 223 -140 l 1,1,-1
 67 -140 l 1,2,-1
 67 2188 l 1,3,-1
 223 2188 l 1,0,-1
EndSplineSet
EndChar

StartChar: braceright
Encoding: 125 125 146
Width: 456
Flags: W
HStem: -127 134<-1 169> 2044 137<-1 169>
VStem: -1 329<-127 7 2044 2181> 169 159<7 2044>
LayerCount: 2
Fore
SplineSet
328 2181 m 1,0,-1
 328 -127 l 1,1,-1
 -1 -127 l 1,2,-1
 -1 7 l 1,3,-1
 169 7 l 1,4,-1
 169 2044 l 1,5,-1
 -1 2044 l 1,6,-1
 -1 2181 l 1,7,-1
 328 2181 l 1,0,-1
EndSplineSet
EndChar

StartChar: dagger
Encoding: 8224 8224 151
Width: 407
Flags: W
HStem: 1169 115<0 130 279 405>
VStem: 130 147<158 1169 1284 1539>
LayerCount: 2
Fore
SplineSet
133 1284 m 1,0,-1
 133 1539 l 1,1,-1
 279 1539 l 1,2,-1
 279 1284 l 1,3,-1
 405 1284 l 1,4,-1
 405 1169 l 1,5,-1
 277 1169 l 1,6,-1
 277 158 l 1,7,-1
 130 158 l 1,8,-1
 130 1169 l 1,9,-1
 0 1169 l 1,10,-1
 0 1284 l 1,11,-1
 133 1284 l 1,0,-1
EndSplineSet
EndChar

StartChar: cent
Encoding: 162 162 153
Width: 500
Flags: W
VStem: 60 156<98.0967 1678.51> 225 66<-180 -15.5166 1786.55 1961> 300 152<98.9333 829 1032 1678.83>
LayerCount: 2
Fore
SplineSet
291 1961 m 1,0,-1
 291 1793 l 1,1,2
 396 1777 396 1777 438 1698 c 0,3,4
 452 1673 452 1673 452 1645 c 1,5,-1
 452 1032 l 1,6,-1
 300 1032 l 1,7,-1
 300 1642 l 1,8,9
 297 1658 297 1658 284.5 1668.5 c 128,-1,10
 272 1679 272 1679 256.5 1679 c 128,-1,11
 241 1679 241 1679 228.5 1668.5 c 128,-1,12
 216 1658 216 1658 216 1642 c 2,13,-1
 216 127 l 2,14,15
 216 118 216 118 228.5 108 c 128,-1,16
 241 98 241 98 256.5 98 c 128,-1,17
 272 98 272 98 284.5 108 c 128,-1,18
 297 118 297 118 300 127 c 1,19,-1
 300 829 l 1,20,-1
 452 829 l 1,21,-1
 452 127 l 1,22,23
 450 42 450 42 352 -4 c 0,24,25
 324 -18 324 -18 291 -21 c 1,26,-1
 291 -180 l 1,27,-1
 225 -180 l 1,28,-1
 225 -21 l 1,29,30
 118 -9 118 -9 74 74 c 0,31,32
 60 99 60 99 60 127 c 1,33,-1
 60 1642 l 1,34,35
 62 1697 62 1697 110 1741 c 0,36,37
 155 1783 155 1783 225 1793 c 1,38,-1
 225 1961 l 1,39,-1
 291 1961 l 1,0,-1
EndSplineSet
EndChar

StartChar: sterling
Encoding: 163 163 154
Width: 637
Flags: W
HStem: 0 123<204 589> 1002 124<42 169 325 589> 1952 123<333.587 433.496>
VStem: 169 156<243.044 1002 1126 1937.56> 434 158<1534 1950.89>
LayerCount: 2
Fore
SplineSet
42 1126 m 1,0,-1
 169 1126 l 1,1,-1
 169 1903 l 2,2,3
 170 1972 170 1972 232 2024 c 0,4,5
 293 2074 293 2074 378 2075 c 0,6,7
 466 2075 466 2075 529 2023 c 128,-1,8
 592 1971 592 1971 592 1901 c 2,9,-1
 592 1534 l 1,10,-1
 434 1534 l 1,11,-1
 434 1905 l 2,12,13
 434 1924 434 1924 417 1938 c 128,-1,14
 400 1952 400 1952 377 1952 c 128,-1,15
 354 1952 354 1952 339.5 1938 c 128,-1,16
 325 1924 325 1924 325 1905 c 2,17,-1
 325 1126 l 1,18,-1
 589 1126 l 1,19,-1
 589 1002 l 1,20,-1
 325 1002 l 1,21,-1
 325 445 l 2,22,23
 325 290 325 290 265 192 c 0,24,25
 238 146 238 146 204 123 c 1,26,-1
 589 123 l 1,27,-1
 589 0 l 1,28,-1
 21 0 l 1,29,-1
 21 123 l 1,30,31
 103 176 103 176 146 290 c 0,32,33
 169 352 169 352 169 444 c 2,34,-1
 169 1002 l 1,35,-1
 42 1002 l 1,36,-1
 42 1126 l 1,0,-1
EndSplineSet
EndChar

StartChar: section
Encoding: 167 167 155
Width: 479
Flags: W
HStem: -13 118<197.04 293.947> 1985 118<182.881 279.767>
VStem: 28 141<875.471 1267.06 1707.3 1983.35> 48 149<106.02 489> 280 151<1616 1984.88> 308 141<107.557 386.984 851.51 1249.3>
LayerCount: 2
Fore
SplineSet
246 105 m 256,0,1
 295 105 295 105 295 146 c 0,2,3
 296 395 296 395 162 643 c 0,4,5
 81 793 81 793 54.5 891.5 c 128,-1,6
 28 990 28 990 28 1084 c 0,7,8
 28 1345 28 1345 190 1390 c 1,9,-1
 132 1496 l 1,10,11
 28 1692 28 1692 29 1945 c 0,12,13
 30 2017 30 2017 96 2062 c 0,14,15
 156 2103 156 2103 212 2103 c 128,-1,16
 268 2103 268 2103 304 2093 c 128,-1,17
 340 2083 340 2083 368 2063 c 0,18,19
 431 2018 431 2018 431 1947 c 2,20,-1
 431 1616 l 1,21,-1
 280 1616 l 1,22,-1
 280 1945 l 2,23,24
 280 1985 280 1985 231 1985 c 256,25,26
 182 1985 182 1985 182 1945 c 0,27,28
 182 1696 182 1696 316 1462 c 0,29,30
 399 1316 399 1316 424 1222.5 c 128,-1,31
 449 1129 449 1129 449 1035 c 0,32,33
 449 771 449 771 288 728 c 1,34,35
 363 589 363 589 392 504 c 0,36,37
 449 333 449 333 449 146 c 0,38,39
 449 74 449 74 383 28 c 0,40,41
 324 -13 324 -13 246 -13 c 257,42,43
 169 -13 169 -13 126 17 c 0,44,45
 48 71 48 71 48 143 c 2,46,-1
 48 489 l 1,47,-1
 197 489 l 1,48,-1
 197 146 l 2,49,50
 197 105 197 105 246 105 c 256,0,1
231 834 m 1,51,52
 308 849 308 849 308 1023 c 0,53,54
 308 1161 308 1161 246 1289 c 1,55,56
 200 1278 200 1278 178 1188 c 0,57,58
 170 1152 170 1152 169 1083 c 0,59,60
 169 967 169 967 231 834 c 1,51,52
EndSplineSet
EndChar

StartChar: bullet
Encoding: 8226 8226 156
Width: 532
Flags: W
HStem: 619 908<132.479 402.41>
VStem: 60 412<688.75 1457.69>
LayerCount: 2
Fore
SplineSet
472 794 m 2,0,1
 472 723 472 723 410 670 c 0,2,3
 350 619 350 619 267 619 c 0,4,5
 180 619 180 619 121 672 c 0,6,7
 60 726 60 726 60 801 c 2,8,-1
 60 1348 l 2,9,10
 60 1420 60 1420 121 1474 c 0,11,12
 181 1526 181 1526 267 1527 c 0,13,14
 351 1528 351 1528 410 1478 c 0,15,16
 472 1426 472 1426 472 1351 c 2,17,-1
 472 794 l 2,0,1
EndSplineSet
EndChar

StartChar: paragraph
Encoding: 182 182 157
Width: 755
Flags: W
HStem: 0 21G<325 487 531 690> 2028 20G<233 690>
VStem: 64 626<1015.42 1979.15> 531 159<0 960>
LayerCount: 2
Fore
SplineSet
64 1861 m 2,0,1
 64 1946 64 1946 128 1998 c 0,2,3
 189 2048 189 2048 277 2048 c 2,4,-1
 690 2048 l 1,5,-1
 690 0 l 1,6,-1
 531 0 l 1,7,-1
 531 960 l 1,8,-1
 487 960 l 1,9,-1
 487 0 l 1,10,-1
 325 0 l 1,11,-1
 325 959 l 1,12,13
 126 958 126 958 80 1052 c 0,14,15
 64 1086 64 1086 64 1135 c 2,16,-1
 64 1861 l 2,0,1
EndSplineSet
EndChar

StartChar: trademark
Encoding: 8482 8482 158
Width: 1114
Flags: W
HStem: 1912 136<28 160 318 451>
VStem: 160 158<907 1912> 487 158<907 1519 1975.23 2048> 741 70<907 998.392> 904 157<907 1519 1973.52 2048>
LayerCount: 2
Fore
SplineSet
902 2048 m 1,0,-1
 1061 2048 l 1,1,-1
 1061 907 l 1,2,-1
 904 907 l 1,3,-1
 904 1519 l 1,4,-1
 811 907 l 1,5,-1
 741 907 l 1,6,-1
 645 1519 l 1,7,-1
 645 907 l 1,8,-1
 487 907 l 1,9,-1
 487 2048 l 1,10,-1
 647 2048 l 1,11,-1
 776 1383 l 1,12,-1
 902 2048 l 1,0,-1
451 2048 m 1,13,-1
 451 1912 l 1,14,-1
 318 1912 l 1,15,-1
 318 907 l 1,16,-1
 160 907 l 1,17,-1
 160 1912 l 1,18,-1
 28 1912 l 1,19,-1
 28 2048 l 1,20,-1
 451 2048 l 1,13,-1
EndSplineSet
EndChar

StartChar: acute
Encoding: 180 180 159
Width: 379
Flags: W
HStem: 98 476
VStem: 141 338
LayerCount: 2
Fore
SplineSet
479 574 m 1,0,-1
 258 98 l 1,1,-1
 141 98 l 1,2,-1
 295 574 l 1,3,-1
 479 574 l 1,0,-1
EndSplineSet
EndChar

StartChar: dieresis
Encoding: 168 168 160
Width: 682
Flags: W
HStem: 88 185<134 302 370 536>
VStem: 134 168<88 273> 370 166<88 273>
LayerCount: 2
Fore
SplineSet
536 273 m 1,0,-1
 536 88 l 1,1,-1
 370 88 l 1,2,-1
 370 273 l 1,3,-1
 536 273 l 1,0,-1
302 273 m 1,4,-1
 302 88 l 1,5,-1
 134 88 l 1,6,-1
 134 273 l 1,7,-1
 302 273 l 1,4,-1
EndSplineSet
EndChar

StartChar: infinity
Encoding: 8734 8734 162
Width: 864
Flags: W
HStem: 720 140<142.937 313.152 542.83 712.853> 1124 140<140.875 312.754 544.779 715.01>
VStem: 17 108<875.102 1110.03> 731 115<875.716 1111.11>
LayerCount: 2
Fore
SplineSet
846 992 m 0,0,1
 846 938 846 938 834 889 c 128,-1,2
 822 840 822 840 798 802 c 0,3,4
 745 720 745 720 655 720 c 0,5,6
 552 720 552 720 460 861 c 2,7,-1
 434 900 l 1,8,-1
 408 861 l 1,9,10
 312 720 312 720 209 720 c 0,11,12
 117 720 117 720 64 802 c 0,13,14
 17 875 17 875 17 993 c 0,15,16
 17 1176 17 1176 124 1242 c 0,17,18
 160 1264 160 1264 212 1264 c 0,19,20
 309 1264 309 1264 408 1122 c 1,21,-1
 434 1084 l 1,22,-1
 460 1122 l 1,23,24
 556 1264 556 1264 655 1264 c 0,25,26
 745 1264 745 1264 798 1182 c 0,27,28
 846 1106 846 1106 846 992 c 0,0,1
125 993 m 0,29,30
 125 860 125 860 225 860 c 0,31,32
 293 860 293 860 363 965 c 1,33,-1
 381 991 l 1,34,-1
 363 1019 l 1,35,36
 293 1124 293 1124 225 1124 c 0,37,38
 143 1124 143 1124 129 1043 c 0,39,40
 125 1019 125 1019 125 993 c 0,29,30
631 860 m 0,41,42
 731 860 731 860 731 993 c 0,43,44
 732 1088 732 1088 682 1114 c 0,45,46
 662 1124 662 1124 626 1124 c 0,47,48
 564 1124 564 1124 493 1019 c 1,49,-1
 475 991 l 1,50,-1
 493 965 l 1,51,52
 563 860 563 860 631 860 c 0,41,42
EndSplineSet
EndChar

StartChar: lessequal
Encoding: 8804 8804 164
Width: 494
Flags: W
HStem: 283 169<27 465>
VStem: 18 448
LayerCount: 2
Fore
SplineSet
466 1558 m 1,0,-1
 466 1256 l 1,1,-1
 245 1025 l 1,2,-1
 466 819 l 1,3,-1
 466 511 l 1,4,-1
 18 1025 l 1,5,-1
 466 1558 l 1,0,-1
27 452 m 1,6,-1
 465 452 l 1,7,-1
 465 283 l 1,8,-1
 27 283 l 1,9,-1
 27 452 l 1,6,-1
EndSplineSet
EndChar

StartChar: greaterequal
Encoding: 8805 8805 165
Width: 494
Flags: W
HStem: 283 169<29 468>
VStem: 28 448
LayerCount: 2
Fore
SplineSet
476 1025 m 1,0,-1
 28 511 l 1,1,-1
 28 819 l 1,2,-1
 249 1025 l 1,3,-1
 28 1256 l 1,4,-1
 28 1558 l 1,5,-1
 476 1025 l 1,0,-1
468 283 m 1,6,-1
 29 283 l 1,7,-1
 29 452 l 1,8,-1
 468 452 l 1,9,-1
 468 283 l 1,6,-1
EndSplineSet
EndChar

StartChar: yen
Encoding: 165 165 166
Width: 517
Flags: W
HStem: 0 21G<179 335> 522 129<8 179 335 507> 739 128<8 169 343 507> 2028 20G<18 182.793 333.207 491>
VStem: 18 163<1935.88 2048> 179 156<0 522 651 739> 335 156<1933.6 2048>
LayerCount: 2
Fore
SplineSet
507 739 m 1,0,-1
 335 739 l 1,1,-1
 335 651 l 1,2,-1
 507 651 l 1,3,-1
 507 522 l 1,4,-1
 335 522 l 1,5,-1
 335 0 l 1,6,-1
 179 0 l 1,7,-1
 179 522 l 1,8,-1
 8 522 l 1,9,-1
 8 651 l 1,10,-1
 179 651 l 1,11,-1
 179 739 l 1,12,-1
 8 739 l 1,13,-1
 8 867 l 1,14,-1
 169 867 l 1,15,-1
 18 2048 l 1,16,-1
 181 2048 l 1,17,-1
 258 1189 l 1,18,-1
 335 2048 l 1,19,-1
 491 2048 l 1,20,-1
 343 867 l 1,21,-1
 507 867 l 1,22,-1
 507 739 l 1,0,-1
EndSplineSet
EndChar

StartChar: uni00B5
Encoding: 181 181 167
AltUni2: 0003bc.ffffffff.0 0003bc.ffffffff.0
Width: 514
Flags: W
HStem: -24 119<217.563 296.532> 1748 20G<62 217 297 452> 1748 20G<62 217 297 452>
VStem: 62 155<-130 15 95.0024 1768> 297 155<95.5 1768>
LayerCount: 2
Fore
SplineSet
62 1768 m 1,0,-1
 217 1768 l 1,1,-1
 217 130 l 2,2,3
 217 115 217 115 229 105 c 128,-1,4
 241 95 241 95 256.5 95 c 128,-1,5
 272 95 272 95 284.5 105 c 128,-1,6
 297 115 297 115 297 130 c 2,7,-1
 297 1768 l 1,8,-1
 452 1768 l 1,9,-1
 452 125 l 2,10,11
 452 64 452 64 400 19 c 0,12,13
 349 -24 349 -24 284 -24 c 0,14,15
 253 -24 253 -24 217 15 c 1,16,-1
 217 -130 l 1,17,-1
 62 -130 l 1,18,-1
 62 1768 l 1,0,-1
EndSplineSet
EndChar

StartChar: partialdiff
Encoding: 8706 8706 168
Width: 521
Flags: W
HStem: -1 121<217.954 286.53> 960 135<226.726 302> 2027 20G<302 459>
VStem: 42 161<133.409 950.713> 302 157<133.41 960 1095 2047>
LayerCount: 2
Fore
SplineSet
42 918 m 2,0,1
 42 1016 42 1016 108.5 1055.5 c 128,-1,2
 175 1095 175 1095 302 1095 c 1,3,-1
 302 2047 l 1,4,-1
 459 2047 l 1,5,-1
 459 186 l 2,6,7
 459 100 459 100 399 49 c 0,8,9
 341 -1 341 -1 249 -1 c 1,10,11
 108 -2 108 -2 58 106 c 0,12,13
 42 140 42 140 42 185 c 2,14,-1
 42 918 l 2,0,1
203 172 m 2,15,16
 203 146 203 146 217.5 133 c 128,-1,17
 232 120 232 120 252 120 c 256,18,19
 272 120 272 120 287 133 c 128,-1,20
 302 146 302 146 302 174 c 2,21,-1
 302 960 l 1,22,23
 249 960 249 960 226 951 c 128,-1,24
 203 942 203 942 203 910 c 2,25,-1
 203 172 l 2,15,16
EndSplineSet
EndChar

StartChar: summation
Encoding: 8721 8721 169
Width: 421
Flags: W
HStem: 0 130<200 409> 1019 139<262 410> 1912 136<200 409>
LayerCount: 2
Fore
SplineSet
409 1912 m 1,0,-1
 200 1912 l 1,1,-1
 262 1158 l 1,2,-1
 410 1158 l 1,3,-1
 410 1019 l 1,4,-1
 262 1019 l 1,5,-1
 200 130 l 1,6,-1
 409 130 l 1,7,-1
 409 0 l 1,8,-1
 45 0 l 1,9,-1
 118 1084 l 1,10,-1
 45 2048 l 1,11,-1
 409 2048 l 1,12,-1
 409 1912 l 1,0,-1
EndSplineSet
EndChar

StartChar: product
Encoding: 8719 8719 170
Width: 1714
Flags: W
HStem: 413 143<614.304 1096.25> 1177 124<854 914.916> 1723 115<854 933.736> 1928 143<612.289 1101.1>
VStem: 28 153<996.744 1483.51> 699 151<637 1177 1301 1723> 934 150<1308.22 1719.67> 1533 153<993.709 1489.29>
LayerCount: 2
Fore
SplineSet
1084 1338 m 2,0,1
 1084 1187 1084 1187 850 1177 c 1,2,-1
 850 637 l 1,3,-1
 699 637 l 1,4,-1
 699 1838 l 1,5,-1
 893 1838 l 2,6,7
 973 1838 973 1838 1028 1794 c 0,8,9
 1084 1750 1084 1750 1084 1688 c 2,10,-1
 1084 1338 l 2,0,1
934 1688 m 2,11,12
 934 1723 934 1723 854 1723 c 1,13,-1
 854 1301 l 1,14,15
 897 1301 897 1301 915.5 1308 c 128,-1,16
 934 1315 934 1315 934 1334 c 2,17,-1
 934 1688 l 2,11,12
28 1242 m 256,18,19
 28 1467 28 1467 141 1660 c 0,20,21
 250 1846 250 1846 439 1957 c 0,22,23
 633 2071 633 2071 857 2071 c 256,24,25
 1081 2071 1081 2071 1275 1957 c 0,26,27
 1462 1847 1462 1847 1572 1660 c 0,28,29
 1686 1466 1686 1466 1686 1242 c 256,30,31
 1686 1018 1686 1018 1572 824 c 0,32,33
 1461 635 1461 635 1275 526 c 0,34,35
 1082 413 1082 413 857 413 c 257,36,37
 632 413 632 413 439 526 c 0,38,39
 251 636 251 636 141 824 c 0,40,41
 28 1017 28 1017 28 1242 c 256,18,19
181 1218 m 0,42,43
 181 1100 181 1100 233.5 975 c 128,-1,44
 286 850 286 850 377 757 c 128,-1,45
 468 664 468 664 591.5 610 c 128,-1,46
 715 556 715 556 833 556 c 128,-1,47
 951 556 951 556 1038 580.5 c 128,-1,48
 1125 605 1125 605 1200 649.5 c 128,-1,49
 1275 694 1275 694 1336.5 756.5 c 0,50,51
 1398 820 1398 820 1442 896 c 0,52,53
 1534 1057 1534 1057 1533 1242 c 0,54,55
 1532 1525 1532 1525 1336 1726 c 0,56,57
 1139 1928 1139 1928 857 1928 c 0,58,59
 573 1928 573 1928 377 1726 c 128,-1,60
 181 1524 181 1524 181 1218 c 0,42,43
EndSplineSet
EndChar

StartChar: pi
Encoding: 960 960 171
Width: 340
Flags: W
HStem: 0 21G<92 248>
VStem: 92 156<0 1764>
LayerCount: 2
Fore
SplineSet
248 1764 m 1,0,-1
 248 0 l 1,1,-1
 92 0 l 1,2,-1
 92 1764 l 1,3,-1
 248 1764 l 1,0,-1
EndSplineSet
EndChar

StartChar: integral
Encoding: 8747 8747 172
Width: 504
Flags: W
HStem: 0 21G<28 179.746> 882 123<265 393> 1653 115<322 515>
VStem: 28 497
LayerCount: 2
Fore
SplineSet
515 1653 m 1,0,-1
 322 1653 l 1,1,-1
 265 1005 l 1,2,-1
 405 1005 l 1,3,-1
 393 882 l 1,4,-1
 255 882 l 1,5,-1
 178 0 l 1,6,-1
 28 0 l 1,7,-1
 182 1768 l 1,8,-1
 525 1768 l 1,9,-1
 515 1653 l 1,0,-1
EndSplineSet
EndChar

StartChar: Omega
Encoding: 937 937 175
AltUni2: 002126.ffffffff.0 002126.ffffffff.0
Width: 596
Flags: W
HStem: 0 125<35 151 451 563> 1953 119<245.483 350.108>
VStem: 35 239<0 125> 81 160<180.795 1950.33> 328 235<0 125> 361 160<180.567 1938.55>
LayerCount: 2
Fore
SplineSet
328 125 m 1,0,1
 361 250 361 250 361 491 c 2,2,-1
 361 1872 l 2,3,4
 361 1925 361 1925 343.5 1939 c 128,-1,5
 326 1953 326 1953 301 1953 c 256,6,7
 241 1953 241 1953 241 1872 c 2,8,-1
 241 491 l 2,9,10
 241 237 241 237 274 125 c 1,11,-1
 274 0 l 1,12,-1
 35 0 l 1,13,-1
 35 125 l 1,14,-1
 151 125 l 1,15,16
 81 244 81 244 81 490 c 2,17,-1
 81 1817 l 2,18,19
 81 1928 81 1928 110.5 1976.5 c 128,-1,20
 140 2025 140 2025 183.5 2048.5 c 128,-1,21
 227 2072 227 2072 300.5 2072 c 128,-1,22
 374 2072 374 2072 418 2048.5 c 128,-1,23
 462 2025 462 2025 484 1988 c 0,24,25
 520 1928 520 1928 521 1817 c 2,26,-1
 521 490 l 2,27,28
 521 250 521 250 451 125 c 1,29,-1
 563 125 l 1,30,-1
 563 0 l 1,31,-1
 328 0 l 1,32,-1
 328 125 l 1,0,1
EndSplineSet
EndChar

StartChar: logicalnot
Encoding: 172 172 178
Width: 1170
Flags: W
HStem: 1233 117<175 1142>
VStem: 28 147<840 1233>
LayerCount: 2
Fore
SplineSet
1142 1348 m 1,0,-1
 1142 1233 l 1,1,-1
 175 1233 l 1,2,-1
 175 840 l 1,3,-1
 28 840 l 1,4,-1
 28 1350 l 1,5,-1
 1142 1348 l 1,0,-1
EndSplineSet
EndChar

StartChar: radical
Encoding: 8730 8730 179
Width: 623
Flags: W
HStem: 0 21G<259.636 488.084> 939 94<0 151> 2028 20G<433.216 598>
VStem: 434 164<1783.49 2048>
LayerCount: 2
Fore
SplineSet
298 1033 m 1,0,-1
 368 364 l 1,1,-1
 434 2048 l 1,2,-1
 598 2048 l 1,3,-1
 487 0 l 1,4,-1
 262 0 l 1,5,-1
 151 939 l 1,6,-1
 0 939 l 1,7,-1
 0 1033 l 1,8,-1
 298 1033 l 1,0,-1
EndSplineSet
EndChar

StartChar: florin
Encoding: 402 402 180
Width: 511
Flags: W
HStem: 0 21G<28 179.746> 882 123<265 393> 1653 115<322 515>
VStem: 28 497
LayerCount: 2
Fore
SplineSet
515 1653 m 1,0,-1
 322 1653 l 1,1,-1
 265 1005 l 1,2,-1
 405 1005 l 1,3,-1
 393 882 l 1,4,-1
 255 882 l 1,5,-1
 178 0 l 1,6,-1
 28 0 l 1,7,-1
 182 1768 l 1,8,-1
 525 1768 l 1,9,-1
 515 1653 l 1,0,-1
EndSplineSet
EndChar

StartChar: approxequal
Encoding: 8776 8776 181
Width: 815
Flags: W
HStem: 697 135<223.3 705.022> 749 133<109.045 565.704> 924 134<221.98 705.817> 976 133<109.045 575.053>
VStem: 28 80<697 745.373 924 972.373> 707 78<832.12 882 1060.55 1109>
LayerCount: 2
Fore
SplineSet
673 1058 m 0,0,1
 700 1058 700 1058 707 1109 c 1,2,-1
 785 1109 l 1,3,4
 787 1091 787 1091 787 1074 c 0,5,6
 787 964 787 964 711 932 c 0,7,8
 692 924 692 924 669.5 924 c 128,-1,9
 647 924 647 924 605 928 c 2,10,-1
 509 938 l 2,11,12
 455 944 455 944 396 950.5 c 0,13,14
 336 956 336 956 284 962 c 2,15,-1
 192 972 l 2,16,17
 152 976 152 976 140 976 c 0,18,19
 120 976 120 976 112 949 c 1,20,21
 108 940 108 940 108 924 c 1,22,-1
 28 924 l 1,23,24
 28 1109 28 1109 143 1109 c 0,25,26
 162 1109 162 1109 202 1105 c 0,27,28
 331 1092 331 1092 397 1084 c 0,29,30
 639 1058 639 1058 673 1058 c 0,0,1
673 832 m 0,31,32
 700 832 700 832 707 882 c 1,33,-1
 785 882 l 1,34,35
 785 874 785 874 785 866 c 0,36,37
 785 739 785 739 704 705 c 0,38,39
 685 697 685 697 662.5 697 c 128,-1,40
 640 697 640 697 598 701 c 128,-1,41
 556 705 556 705 503.5 710.5 c 128,-1,42
 451 716 451 716 393 723 c 0,43,44
 336 730 336 730 284 736 c 2,45,-1
 193 745 l 2,46,47
 154 749 154 749 140 749 c 0,48,49
 120 749 120 749 112 722 c 1,50,51
 108 713 108 713 108 697 c 1,52,-1
 28 697 l 1,53,54
 28 882 28 882 143 882 c 0,55,56
 182 882 182 882 264.5 872.5 c 0,57,58
 346 863 346 863 404 857 c 2,59,-1
 515 845 l 2,60,61
 630 832 630 832 673 832 c 0,31,32
EndSplineSet
EndChar

StartChar: Delta
Encoding: 916 916 182
AltUni2: 002206.ffffffff.0 002206.ffffffff.0
Width: 507
Flags: W
HStem: 0 133<181 323> 2028 20G<141.877 365.123>
VStem: 143 221<1792.69 2048>
LayerCount: 2
Fore
SplineSet
479 0 m 1,0,-1
 28 0 l 1,1,-1
 143 2048 l 1,2,-1
 364 2048 l 1,3,-1
 479 0 l 1,0,-1
323 133 m 1,4,-1
 252 1715 l 1,5,-1
 181 133 l 1,6,-1
 323 133 l 1,4,-1
EndSplineSet
EndChar

StartChar: guillemotleft
Encoding: 171 171 183
Width: 668
Flags: W
VStem: 48 599
LayerCount: 2
Fore
SplineSet
647 1698 m 1,0,-1
 647 1368 l 1,1,-1
 476 1025 l 1,2,-1
 647 707 l 1,3,-1
 647 350 l 1,4,-1
 318 1025 l 1,5,-1
 647 1698 l 1,0,-1
377 1698 m 1,6,-1
 377 1368 l 1,7,-1
 206 1025 l 1,8,-1
 377 707 l 1,9,-1
 377 350 l 1,10,-1
 48 1025 l 1,11,-1
 377 1698 l 1,6,-1
EndSplineSet
EndChar

StartChar: endash
Encoding: 8211 8211 186
Width: 804
Flags: W
HStem: 872 157<27 777>
LayerCount: 2
Fore
SplineSet
777 872 m 1,0,-1
 27 872 l 1,1,-1
 27 1029 l 1,2,-1
 777 1029 l 1,3,-1
 777 872 l 1,0,-1
EndSplineSet
EndChar

StartChar: emdash
Encoding: 8212 8212 187
Width: 804
Flags: W
HStem: 872 157<27 777>
LayerCount: 2
Fore
SplineSet
777 872 m 1,0,-1
 27 872 l 1,1,-1
 27 1029 l 1,2,-1
 777 1029 l 1,3,-1
 777 872 l 1,0,-1
EndSplineSet
EndChar

StartChar: quotedblleft
Encoding: 8220 8220 188
Width: 568
Flags: W
HStem: 1631 419<94 193 349 447>
VStem: 8 185<1631 1700.85> 94 99<1980.15 2050> 263 185<1631 1700.85> 349 98<1980.15 2050>
LayerCount: 2
Fore
SplineSet
263 1631 m 1,0,-1
 349 2050 l 1,1,-1
 447 2050 l 1,2,-1
 448 1631 l 1,3,-1
 263 1631 l 1,0,-1
8 1631 m 1,4,-1
 94 2050 l 1,5,-1
 193 2050 l 1,6,-1
 193 1631 l 1,7,-1
 8 1631 l 1,4,-1
EndSplineSet
EndChar

StartChar: quotedblright
Encoding: 8221 8221 189
Width: 568
Flags: W
HStem: 1630 418<27 126 281 379>
VStem: 25 185<1976.66 2048> 27 99<1630 1701.34> 280 185<1978.32 2048> 281 98<1630 1699.68>
LayerCount: 2
Fore
SplineSet
210 2048 m 1,0,-1
 126 1630 l 1,1,-1
 27 1630 l 1,2,-1
 25 2048 l 1,3,-1
 210 2048 l 1,0,-1
465 2048 m 1,4,-1
 379 1630 l 1,5,-1
 281 1630 l 1,6,-1
 280 2048 l 1,7,-1
 465 2048 l 1,4,-1
EndSplineSet
EndChar

StartChar: quoteleft
Encoding: 8216 8216 190
Width: 568
Flags: W
HStem: 1631 419<94 193>
VStem: 8 185<1631 1700.85> 94 99<1980.15 2050>
LayerCount: 2
Fore
SplineSet
8 1631 m 1,0,-1
 94 2050 l 1,1,-1
 193 2050 l 1,2,-1
 193 1631 l 1,3,-1
 8 1631 l 1,0,-1
EndSplineSet
EndChar

StartChar: quoteright
Encoding: 8217 8217 191
Width: 568
Flags: W
HStem: 1630 418<281 379>
VStem: 280 185<1978.32 2048> 281 98<1630 1699.68>
LayerCount: 2
Fore
SplineSet
465 2048 m 1,0,-1
 379 1630 l 1,1,-1
 281 1630 l 1,2,-1
 280 2048 l 1,3,-1
 465 2048 l 1,0,-1
EndSplineSet
EndChar

StartChar: divide
Encoding: 247 247 192
Width: 652
Flags: W
HStem: 483 214<228 441> 773 157<28 624> 998 216<228 441>
VStem: 228 213<483 697 998 1214>
LayerCount: 2
Fore
SplineSet
624 773 m 1,0,-1
 28 773 l 1,1,-1
 28 930 l 1,2,-1
 624 930 l 1,3,-1
 624 773 l 1,0,-1
441 1214 m 1,4,-1
 441 998 l 1,5,-1
 228 998 l 1,6,-1
 228 1214 l 1,7,-1
 441 1214 l 1,4,-1
441 697 m 1,8,-1
 441 483 l 1,9,-1
 228 483 l 1,10,-1
 228 697 l 1,11,-1
 441 697 l 1,8,-1
EndSplineSet
EndChar

StartChar: lozenge
Encoding: 9674 9674 193
Width: 532
Flags: W
HStem: -24 91.5<176.252 352.605>
VStem: 60 101<82.75 729.957> 60 76<587.043 1145> 167 47<773.237 1097.57> 239 77<771.352 1238> 336 36<806.701 1097.42> 367 105<81.4229 710.076> 393 79<607.924 1156>
LayerCount: 2
Fore
SplineSet
472 151 m 2,0,1
 472 81 472 81 410 28 c 0,2,3
 349 -24 349 -24 267 -24 c 0,4,5
 181 -24 181 -24 121 28 c 0,6,7
 60 81 60 81 60 157 c 2,8,-1
 60 1896 l 2,9,10
 60 1970 60 1970 121 2022 c 0,11,12
 181 2073 181 2073 267 2073 c 0,13,14
 351 2074 351 2074 410 2024 c 0,15,16
 472 1972 472 1972 472 1898 c 2,17,-1
 472 151 l 2,0,1
282 711 m 1,18,19
 238 830 238 830 239 1082 c 0,20,21
 239 1162 239 1162 244 1215 c 1,22,-1
 245 1242 l 1,23,24
 214 1181 214 1181 211 1067 c 0,25,26
 209 1010 209 1010 210 941 c 0,27,28
 210 826 210 826 214 680 c 1,29,30
 180 741 180 741 167 861 c 128,-1,31
 154 981 154 981 149 1044 c 128,-1,32
 144 1107 144 1107 136 1145 c 1,33,-1
 161 172 l 1,34,35
 161 100 161 100 218 76 c 0,36,37
 238 68 238 68 266.5 67.5 c 128,-1,38
 295 67 295 67 313.5 76 c 128,-1,39
 332 85 332 85 344 99 c 0,40,41
 362 121 362 121 367 162 c 1,42,-1
 393 1156 l 1,43,44
 391 1148 391 1148 388 1115 c 2,45,-1
 372 946 l 2,46,47
 355 764 355 764 337 764 c 0,48,49
 336 764 l 1,50,51
 340 836 340 836 340 903 c 128,-1,52
 340 970 340 970 338 1026 c 0,53,54
 333 1131 333 1131 323 1198 c 1,55,-1
 318 1238 l 1,56,-1
 316 1184 l 1,57,58
 310 922 310 922 282 711 c 1,18,19
EndSplineSet
EndChar

StartChar: fraction
Encoding: 8260 8260 196
Width: 377
Flags: W
HStem: 0 21G<1 159.148> 2028 20G<218.852 377>
VStem: 1 376
LayerCount: 2
Fore
SplineSet
377 2048 m 1,0,-1
 157 0 l 1,1,-1
 1 0 l 1,2,-1
 221 2048 l 1,3,-1
 377 2048 l 1,0,-1
EndSplineSet
EndChar

StartChar: currency
Encoding: 164 164 197
Width: 609
Flags: W
HStem: 983 115<256.825 346.797> 1862 111<256.438 339.855> 2031 17G<95.0563 135.364 472.922 512.243>
VStem: 113 143<1108.06 1858> 347 144<1109.84 1850.14>
LayerCount: 2
Fore
SplineSet
304 1973 m 256,0,1
 355 1973 355 1973 407 1949 c 1,2,-1
 489 2051 l 1,3,-1
 575 1977 l 1,4,-1
 476 1858 l 1,5,6
 491 1831 491 1831 491 1796 c 2,7,-1
 491 1158 l 2,8,9
 491 1136 491 1136 480 1109 c 1,10,-1
 574 1002 l 1,11,-1
 487 931 l 1,12,-1
 413 1011 l 1,13,14
 363 983 363 983 303 983 c 128,-1,15
 243 983 243 983 193 1011 c 1,16,-1
 119 930 l 1,17,-1
 34 1002 l 1,18,-1
 125 1107 l 1,19,20
 113 1141 113 1141 113 1163 c 2,21,-1
 113 1793 l 2,22,23
 113 1827 113 1827 129 1859 c 1,24,25
 127 1865 127 1865 112 1884 c 0,26,27
 67 1940 67 1940 34 1977 c 1,28,-1
 119 2048 l 1,29,-1
 200 1949 l 1,30,31
 252 1973 252 1973 304 1973 c 256,0,1
347 1821 m 2,32,33
 347 1839 347 1839 334.5 1850.5 c 128,-1,34
 322 1862 322 1862 304 1862 c 256,35,36
 286 1862 286 1862 271 1850.5 c 128,-1,37
 256 1839 256 1839 256 1821 c 2,38,-1
 256 1134 l 2,39,40
 256 1124 256 1124 268 1111 c 128,-1,41
 280 1098 280 1098 301 1098 c 0,42,43
 347 1098 347 1098 347 1134 c 2,44,-1
 347 1821 l 2,32,33
EndSplineSet
EndChar

StartChar: guilsinglleft
Encoding: 8249 8249 198
Width: 398
Flags: W
VStem: 23 329
LayerCount: 2
Fore
SplineSet
352 1698 m 1,0,-1
 352 1368 l 1,1,-1
 181 1025 l 1,2,-1
 352 707 l 1,3,-1
 352 350 l 1,4,-1
 23 1025 l 1,5,-1
 352 1698 l 1,0,-1
EndSplineSet
EndChar

StartChar: daggerdbl
Encoding: 8225 8225 202
Width: 766
Flags: W
HStem: 0 21G<307 462> 610 152<28 307 462 738> 1456 151<28 307 462 738> 2028 20G<307 462>
VStem: 307 155<0 610 762 1456 1607 2048>
LayerCount: 2
Fore
SplineSet
28 762 m 1,0,-1
 307 762 l 1,1,-1
 307 1456 l 1,2,-1
 28 1456 l 1,3,-1
 28 1607 l 1,4,-1
 307 1607 l 1,5,-1
 307 2048 l 1,6,-1
 462 2048 l 1,7,-1
 462 1607 l 1,8,-1
 738 1607 l 1,9,-1
 738 1456 l 1,10,-1
 462 1456 l 1,11,-1
 462 762 l 1,12,-1
 738 762 l 1,13,-1
 738 610 l 1,14,-1
 462 610 l 1,15,-1
 462 0 l 1,16,-1
 307 0 l 1,17,-1
 307 610 l 1,18,-1
 28 610 l 1,19,-1
 28 762 l 1,0,-1
EndSplineSet
EndChar

StartChar: periodcentered
Encoding: 183 183 203
Width: 277
Flags: W
HStem: 903 214<25 237>
VStem: 25 212<903 1117>
LayerCount: 2
Fore
SplineSet
237 1117 m 1,0,-1
 237 903 l 1,1,-1
 25 903 l 1,2,-1
 25 1117 l 1,3,-1
 237 1117 l 1,0,-1
EndSplineSet
EndChar

StartChar: quotesinglbase
Encoding: 8218 8218 204
Width: 568
Flags: W
HStem: 0 419<94 193>
VStem: 8 185<0 69.8463> 94 99<349.154 419>
LayerCount: 2
Fore
SplineSet
8 0 m 1,0,-1
 94 419 l 1,1,-1
 193 419 l 1,2,-1
 193 0 l 1,3,-1
 8 0 l 1,0,-1
EndSplineSet
EndChar

StartChar: quotedblbase
Encoding: 8222 8222 205
Width: 568
Flags: W
HStem: 0 419<281 379>
VStem: 280 185<349.154 419> 281 98<0 69.8463>
LayerCount: 2
Fore
SplineSet
465 419 m 1,0,-1
 379 0 l 1,1,-1
 281 0 l 1,2,-1
 280 419 l 1,3,-1
 465 419 l 1,0,-1
EndSplineSet
EndChar

StartChar: apple
Encoding: 65550 -1 208
Width: 532
Flags: W
HStem: -24 91.5<176.252 352.605>
VStem: 60 101<82.75 729.957> 60 76<587.043 1145> 167 47<773.237 1097.57> 239 77<771.352 1238> 336 36<806.701 1097.42> 367 105<81.4229 710.076> 393 79<607.924 1156>
LayerCount: 2
Fore
SplineSet
472 151 m 2,0,1
 472 81 472 81 410 28 c 0,2,3
 349 -24 349 -24 267 -24 c 0,4,5
 181 -24 181 -24 121 28 c 0,6,7
 60 81 60 81 60 157 c 2,8,-1
 60 1896 l 2,9,10
 60 1970 60 1970 121 2022 c 0,11,12
 181 2073 181 2073 267 2073 c 0,13,14
 351 2074 351 2074 410 2024 c 0,15,16
 472 1972 472 1972 472 1898 c 2,17,-1
 472 151 l 2,0,1
282 711 m 1,18,19
 238 830 238 830 239 1082 c 0,20,21
 239 1162 239 1162 244 1215 c 1,22,-1
 245 1242 l 1,23,24
 214 1181 214 1181 211 1067 c 0,25,26
 209 1010 209 1010 210 941 c 0,27,28
 210 826 210 826 214 680 c 1,29,30
 180 741 180 741 167 861 c 128,-1,31
 154 981 154 981 149 1044 c 128,-1,32
 144 1107 144 1107 136 1145 c 1,33,-1
 161 172 l 1,34,35
 161 100 161 100 218 76 c 0,36,37
 238 68 238 68 266.5 67.5 c 128,-1,38
 295 67 295 67 313.5 76 c 128,-1,39
 332 85 332 85 344 99 c 0,40,41
 362 121 362 121 367 162 c 1,42,-1
 393 1156 l 1,43,44
 391 1148 391 1148 388 1115 c 2,45,-1
 372 946 l 2,46,47
 355 764 355 764 337 764 c 0,48,49
 336 764 l 1,50,51
 340 836 340 836 340 903 c 128,-1,52
 340 970 340 970 338 1026 c 0,53,54
 333 1131 333 1131 323 1198 c 1,55,-1
 318 1238 l 1,56,-1
 316 1184 l 1,57,58
 310 922 310 922 282 711 c 1,18,19
EndSplineSet
EndChar

StartChar: dotlessi
Encoding: 305 305 209
Width: 340
Flags: W
HStem: 0 21G<92 248> 1748 20G<92 248> 1748 20G<92 248>
VStem: 92 156<0 1768>
LayerCount: 2
Fore
SplineSet
248 1768 m 1,0,-1
 248 0 l 1,1,-1
 92 0 l 1,2,-1
 92 1768 l 1,3,-1
 248 1768 l 1,0,-1
EndSplineSet
EndChar

StartChar: circumflex
Encoding: 710 710 210
Width: 379
Flags: W
HStem: 98 402<105 154 225 274>
VStem: 36 307
LayerCount: 2
Fore
SplineSet
274 500 m 1,0,-1
 343 98 l 1,1,-1
 225 98 l 1,2,-1
 189 375 l 1,3,-1
 154 98 l 1,4,-1
 36 98 l 1,5,-1
 105 500 l 1,6,-1
 274 500 l 1,0,-1
EndSplineSet
EndChar

StartChar: tilde
Encoding: 732 732 211
Width: 379
Flags: W
HStem: 118 134<145.026 330.64> 169 133<75.4062 249.289>
VStem: -18 92<118 166.111> 332 92<252.382 302>
LayerCount: 2
Fore
SplineSet
241.5 260 m 128,-1,1
 265 252 265 252 295 252 c 128,-1,2
 325 252 325 252 332 302 c 1,3,-1
 424 302 l 1,4,5
 424 294 424 294 424 286 c 0,6,7
 424 160 424 160 342 126 c 0,8,9
 323 118 323 118 295.5 118 c 128,-1,10
 268 118 268 118 243 126 c 128,-1,11
 218 134 218 134 195 144 c 0,12,13
 133 170 133 170 114 169 c 0,14,15
 86 169 86 169 78 143 c 1,16,17
 74 134 74 134 74 118 c 1,18,-1
 -18 118 l 1,19,20
 -18 302 -18 302 104 302 c 0,21,22
 139 302 139 302 178.5 285 c 128,-1,0
 218 268 218 268 241.5 260 c 128,-1,1
EndSplineSet
EndChar

StartChar: macron
Encoding: 175 175 212
Width: 379
Flags: W
HStem: 101 122<0 380>
VStem: 0 380<101 223>
LayerCount: 2
Fore
SplineSet
380 101 m 1,0,-1
 0 101 l 1,1,-1
 0 223 l 1,2,-1
 380 223 l 1,3,-1
 380 101 l 1,0,-1
EndSplineSet
EndChar

StartChar: breve
Encoding: 728 728 213
Width: 379
Flags: W
HStem: 98 133<100.034 274.137>
VStem: -32 117<242.378 358> 297 117<252.918 358>
LayerCount: 2
Fore
SplineSet
361.5 159 m 128,-1,1
 309 98 309 98 191 98 c 128,-1,2
 73 98 73 98 20.5 159 c 128,-1,3
 -32 220 -32 220 -32 358 c 1,4,-1
 85 358 l 1,5,6
 85 248 85 248 148 235 c 0,7,8
 167 231 167 231 190.5 231 c 128,-1,9
 214 231 214 231 233.5 235 c 0,10,11
 253 238 253 238 267 252 c 0,12,13
 297 281 297 281 297 358 c 1,14,-1
 414 358 l 1,15,0
 414 220 414 220 361.5 159 c 128,-1,1
EndSplineSet
EndChar

StartChar: dotaccent
Encoding: 729 729 214
Width: 295
Flags: W
HStem: 115 215<64 276>
VStem: 64 212<115 330>
LayerCount: 2
Fore
SplineSet
276 330 m 1,0,-1
 276 115 l 1,1,-1
 64 115 l 1,2,-1
 64 330 l 1,3,-1
 276 330 l 1,0,-1
EndSplineSet
EndChar

StartChar: ring
Encoding: 730 730 215
Width: 379
Flags: W
HStem: 77 91<143.747 264.753> 314 91.5<151.659 257.341>
VStem: 38 92<181.926 300.848> 279 91<181.809 300.651>
LayerCount: 2
Fore
SplineSet
38 240 m 0,0,1
 38 275 38 275 50.5 305 c 0,2,3
 64 336 64 336 86 358 c 0,4,5
 134 406 134 406 205 405.5 c 128,-1,6
 276 405 276 405 323 358 c 256,7,8
 370 311 370 311 370 239 c 0,9,10
 370 170 370 170 322 124 c 0,11,12
 274 77 274 77 204 77 c 128,-1,13
 134 77 134 77 86 124 c 0,14,15
 38 170 38 170 38 240 c 0,0,1
151 293.5 m 128,-1,17
 130 273 130 273 130 241.5 c 128,-1,18
 130 210 130 210 151 189 c 128,-1,19
 172 168 172 168 204.5 168 c 128,-1,20
 237 168 237 168 258 189 c 128,-1,21
 279 210 279 210 279 241.5 c 128,-1,22
 279 273 279 273 258 293.5 c 128,-1,23
 237 314 237 314 204.5 314 c 128,-1,16
 172 314 172 314 151 293.5 c 128,-1,17
EndSplineSet
EndChar

StartChar: cedilla
Encoding: 184 184 216
Width: 379
Flags: W
HStem: -475 475<150 273>
VStem: 83 190<-475 -373.364> 150 123<-101.636 0>
LayerCount: 2
Fore
SplineSet
83 -475 m 1,0,-1
 150 0 l 1,1,-1
 273 0 l 1,2,-1
 273 -475 l 1,3,-1
 83 -475 l 1,0,-1
EndSplineSet
EndChar

StartChar: hungarumlaut
Encoding: 733 733 217
Width: 758
Flags: W
HStem: 98 476
VStem: 55 567
LayerCount: 2
Fore
SplineSet
393 574 m 1,0,-1
 172 98 l 1,1,-1
 55 98 l 1,2,-1
 209 574 l 1,3,-1
 393 574 l 1,0,-1
622 574 m 1,4,-1
 342 98 l 1,5,-1
 225 98 l 1,6,-1
 438 574 l 1,7,-1
 622 574 l 1,4,-1
EndSplineSet
EndChar

StartChar: ogonek
Encoding: 731 731 218
Width: 379
Flags: W
HStem: -329 98<181.764 385.401> -20 20G<115.5 216>
VStem: 73 99<-221.251 -46.0668>
LayerCount: 2
Fore
SplineSet
402 -270 m 1,0,1
 343 -329 343 -329 259 -329 c 0,2,3
 174 -329 174 -329 122 -277 c 0,4,5
 73 -228 73 -228 73 -156.5 c 128,-1,6
 73 -85 73 -85 158 0 c 1,7,-1
 216 0 l 1,8,9
 172 -69 172 -69 172 -139 c 0,10,11
 172 -231 172 -231 267 -231 c 0,12,13
 338 -231 338 -231 402 -186 c 1,14,-1
 402 -270 l 1,0,1
EndSplineSet
EndChar

StartChar: caron
Encoding: 711 711 219
Width: 379
Flags: W
HStem: 98 402<106 155 227 274>
VStem: 38 306
LayerCount: 2
Fore
SplineSet
106 98 m 1,0,-1
 38 500 l 1,1,-1
 155 500 l 1,2,-1
 190 224 l 1,3,-1
 227 500 l 1,4,-1
 344 500 l 1,5,-1
 274 98 l 1,6,-1
 106 98 l 1,0,-1
EndSplineSet
EndChar

StartChar: Euro
Encoding: 8364 8364 357
Width: 626
Flags: W
HStem: -24 126<320.259 432.897> 1012 123<-14 164 319 550> 1198 124<-11 164 319 581> 1938 137<327.958 423.964>
VStem: 164 155<104.473 1012 1135 1198 1322 1924.59> 433 156<104.191 722 1568 1924.59>
LayerCount: 2
Fore
SplineSet
581 1198 m 1,0,-1
 319 1198 l 1,1,-1
 319 1135 l 1,2,-1
 564 1135 l 1,3,-1
 550 1012 l 1,4,-1
 319 1012 l 1,5,-1
 319 148 l 2,6,7
 319 129 319 129 336 115.5 c 128,-1,8
 353 102 353 102 376 102 c 128,-1,9
 399 102 399 102 416 115.5 c 128,-1,10
 433 129 433 129 433 148 c 2,11,-1
 433 722 l 1,12,-1
 589 722 l 1,13,-1
 589 148 l 2,14,15
 589 74 589 74 530.5 25 c 128,-1,16
 472 -24 472 -24 377 -24 c 0,17,18
 288 -24 288 -24 226 26 c 128,-1,19
 164 76 164 76 164 151 c 2,20,-1
 164 1012 l 1,21,-1
 -14 1012 l 1,22,-1
 -14 1135 l 1,23,-1
 164 1135 l 1,24,-1
 164 1198 l 1,25,-1
 -11 1198 l 1,26,-1
 -11 1322 l 1,27,-1
 164 1322 l 1,28,-1
 164 1900 l 2,29,30
 164 1974 164 1974 224 2024 c 0,31,32
 285 2074 285 2074 378 2075 c 0,33,34
 469 2075 469 2075 530 2025 c 0,35,36
 589 1977 589 1977 589 1905 c 2,37,-1
 589 1568 l 1,38,-1
 433 1568 l 1,39,-1
 433 1893 l 2,40,41
 433 1912 433 1912 416.5 1925 c 128,-1,42
 400 1938 400 1938 375.5 1938 c 128,-1,43
 351 1938 351 1938 335 1925 c 128,-1,44
 319 1912 319 1912 319 1893 c 2,45,-1
 319 1322 l 1,46,-1
 595 1322 l 1,47,-1
 581 1198 l 1,0,-1
EndSplineSet
EndChar

StartChar: Dcroat
Encoding: 272 272 380
Width: 550
Flags: W
HStem: 0 132<220 302.457> 1030 122<-1 291> 1912 136<220 332.738>
VStem: 64 156<132 1912> 333 157<136.256 1909.88>
LayerCount: 2
Fore
SplineSet
291 1030 m 1,0,-1
 -1 1030 l 1,1,-1
 -1 1152 l 1,2,-1
 291 1152 l 1,3,-1
 291 1030 l 1,0,-1
333 1866 m 2,4,5
 333 1910 333 1910 271 1912 c 0,6,7
 250 1912 250 1912 220 1912 c 1,8,-1
 220 132 l 1,9,10
 286 132 286 132 303 136 c 0,11,12
 333 144 333 144 333 175 c 2,13,-1
 333 1866 l 2,4,5
490 175 m 2,14,15
 490 104 490 104 429 52 c 128,-1,16
 368 0 368 0 281 0 c 2,17,-1
 64 0 l 1,18,-1
 64 2048 l 1,19,-1
 281 2048 l 2,20,21
 368 2048 368 2048 428 1998 c 0,22,23
 490 1946 490 1946 490 1876 c 2,24,-1
 490 175 l 2,14,15
EndSplineSet
EndChar

StartChar: dcroat
Encoding: 273 273 391
Width: 515
Flags: W
HStem: 0 118<220 278.855> 872 127<0 264> 1662 106<220 278.855>
VStem: 0 264<872 999> 64 156<118 1662> 300 155<125.223 1655.29>
LayerCount: 2
Fore
SplineSet
264 872 m 1,0,-1
 0 872 l 1,1,-1
 0 999 l 1,2,-1
 264 999 l 1,3,-1
 264 872 l 1,0,-1
300 1627 m 2,4,5
 300 1649 300 1649 279.5 1655.5 c 128,-1,6
 259 1662 259 1662 220 1662 c 1,7,-1
 220 118 l 1,8,9
 259 118 259 118 279.5 125 c 128,-1,10
 300 132 300 132 300 155 c 2,11,-1
 300 1627 l 2,4,5
455 157 m 2,12,13
 455 50 455 50 354 20 c 0,14,15
 287 0 287 0 64 0 c 1,16,-1
 64 1768 l 1,17,18
 290 1768 290 1768 347 1752 c 128,-1,19
 404 1736 404 1736 429.5 1705.5 c 128,-1,20
 455 1675 455 1675 455 1618 c 2,21,-1
 455 157 l 2,12,13
EndSplineSet
EndChar

StartChar: Eng
Encoding: 330 330 425
Width: 557
Flags: W
HStem: -556 126<226.705 327.661> 0 21G<64 220 333.968 493> 2028 20G<64 220.151 346 493>
VStem: 64 156<-428.383 -80 0 1142 1931.49 2048> 336 157<-416.077 444 858 2048>
LayerCount: 2
Fore
SplineSet
226 -384 m 2,0,1
 226 -430 226 -430 285 -430 c 0,2,3
 307 -430 307 -430 321.5 -416.5 c 128,-1,4
 336 -403 336 -403 336 -384 c 2,5,-1
 336 444 l 1,6,-1
 493 444 l 1,7,-1
 493 -381 l 2,8,9
 493 -454 493 -454 432 -506 c 0,10,11
 372 -556 372 -556 285 -556 c 0,12,13
 197 -556 197 -556 133.5 -505.5 c 128,-1,14
 70 -455 70 -455 70 -384 c 2,15,-1
 70 -80 l 1,16,-1
 226 -80 l 1,17,-1
 226 -384 l 2,0,1
493 0 m 1,18,-1
 336 0 l 1,19,-1
 220 1142 l 1,20,-1
 220 0 l 1,21,-1
 64 0 l 1,22,-1
 64 2048 l 1,23,-1
 218 2048 l 1,24,-1
 346 858 l 1,25,-1
 346 2048 l 1,26,-1
 493 2048 l 1,27,-1
 493 0 l 1,18,-1
EndSplineSet
EndChar

StartChar: eng
Encoding: 331 331 426
Width: 524
Flags: W
HStem: -562 119<220.283 295.476> 0 21G<64 216 316.646 459> 1748 20G<64 205.434 319 459> 1748 20G<64 205.434 319 459>
VStem: 64 152<0 994 1764.92 1768> 302 157<-433.718 423> 319 140<0 45.3332 741 1768>
LayerCount: 2
Fore
SplineSet
459 0 m 1,0,-1
 319 0 l 1,1,-1
 202 994 l 1,2,-1
 216 0 l 1,3,-1
 64 0 l 1,4,-1
 64 1768 l 1,5,-1
 203 1768 l 1,6,-1
 328 741 l 1,7,-1
 319 1768 l 1,8,-1
 459 1768 l 1,9,-1
 459 0 l 1,0,-1
459 -411 m 2,10,11
 459 -474 459 -474 400 -518 c 128,-1,12
 341 -562 341 -562 263 -562 c 256,13,14
 185 -562 185 -562 126 -518 c 0,15,16
 67 -473 67 -473 67 -411 c 2,17,-1
 67 -106 l 1,18,-1
 218 -106 l 1,19,-1
 220 -411 l 2,20,21
 220 -425 220 -425 233 -434 c 128,-1,22
 246 -443 246 -443 262.5 -443 c 128,-1,23
 279 -443 279 -443 290.5 -434 c 128,-1,24
 302 -425 302 -425 302 -411 c 2,25,-1
 302 423 l 1,26,-1
 459 423 l 1,27,-1
 459 -411 l 2,10,11
EndSplineSet
EndChar

